<svg width="327" height="284" viewBox="0 0 343 356" fill="none" xmlns="http://www.w3.org/2000/svg"><title>Envelope on stairs</title><path d="M191.528 340.871H210.234V355.325H191.528C187.56 355.325 184.301 352.066 184.301 348.098C184.301 344.13 187.56 340.871 191.528 340.871Z" fill="#0A0F26" stroke="#0A0F26" stroke-width="0.708553" stroke-miterlimit="10" stroke-linecap="round" stroke-linejoin="round"></path><path d="M96.873 269.59H25.7344V335.486H96.873V269.59Z" fill="#5A7682" stroke="#0A0F26" stroke-width="0.708553" stroke-linecap="round" stroke-linejoin="round"></path><path d="M142.354 269.59H25.7266V133.265C25.7266 101.097 51.8013 75.022 83.9696 75.022C116.138 75.022 142.213 101.097 142.213 133.265V269.59H142.354Z" fill="#0A0F26" stroke="#0A0F26" stroke-width="0.708553" stroke-linecap="round" stroke-linejoin="round"></path><path d="M142.354 269.591H25.7266V133.265C25.7266 101.097 51.8013 75.022 83.9696 75.022C116.138 75.022 142.213 101.097 142.213 133.265V269.591H142.354Z" stroke="#0A0F26" stroke-width="0.708553" stroke-linecap="round" stroke-linejoin="round"></path><path d="M84.1122 75.022C77.877 75.022 71.9251 76.0139 66.3984 77.7145C89.9224 85.2251 106.928 107.19 106.928 133.265V269.59H142.355V133.265C142.355 101.097 116.281 75.022 84.1122 75.022Z" fill="#A5B7BE" stroke="#0A0F26" stroke-width="0.708553" stroke-linecap="round" stroke-linejoin="round"></path><path d="M75.1875 112.433L77.1714 112.858C77.7383 113 78.3051 113.283 78.7303 113.567" stroke="white" stroke-width="0.708553" stroke-linecap="round" stroke-linejoin="round"></path><path d="M50.957 107.191L53.0827 107.616" stroke="white" stroke-width="0.708553" stroke-linecap="round" stroke-linejoin="round"></path><path d="M75.1939 112.434C75.3356 113.568 75.1939 114.702 74.9105 115.835C74.6271 116.969 74.2019 118.103 73.6351 119.095C71.226 123.488 65.9827 126.038 60.7394 124.905C55.4961 123.771 51.9534 119.378 51.5282 114.276C51.3865 113.143 51.5283 112.009 51.8117 110.875C52.0951 109.742 52.5202 108.608 53.0871 107.616C55.4961 103.223 60.7394 100.672 65.9827 101.806C71.0843 102.94 74.7688 107.474 75.1939 112.434Z" fill="#5A7682" stroke="#0A0F26" stroke-width="0.708553" stroke-miterlimit="10" stroke-linecap="round" stroke-linejoin="round"></path><path d="M78.592 113.71C79.4422 114.56 80.0091 115.694 79.7256 116.969C79.7256 117.252 79.5839 117.536 79.4422 117.819C78.7337 119.095 77.1748 119.803 75.7577 119.52L73.7738 119.095L51.667 114.276L49.683 113.851C47.8408 113.426 46.7071 111.584 47.1322 109.742C47.1322 109.458 47.2739 109.175 47.4156 108.891C48.1242 107.616 49.683 106.908 51.1001 107.191" stroke="white" stroke-width="0.708553" stroke-linecap="round" stroke-linejoin="round"></path><path d="M69.2368 110.309C70.2542 110.309 71.079 109.484 71.079 108.467C71.079 107.449 70.2542 106.625 69.2368 106.625C68.2193 106.625 67.3945 107.449 67.3945 108.467C67.3945 109.484 68.2193 110.309 69.2368 110.309Z" fill="white"></path><path d="M54.4961 182.156V190.375" stroke="white" stroke-width="0.708553" stroke-linecap="round" stroke-linejoin="round"></path><path d="M58.602 186.265H50.3828" stroke="white" stroke-width="0.708553" stroke-linecap="round" stroke-linejoin="round"></path><path d="M84.1172 174.22V180.455" stroke="white" stroke-width="0.708553" stroke-linecap="round" stroke-linejoin="round"></path><path d="M87.2324 177.337H80.8555" stroke="white" stroke-width="0.708553" stroke-linecap="round" stroke-linejoin="round"></path><path d="M87.2422 249.468V255.703" stroke="white" stroke-width="0.708553" stroke-linecap="round" stroke-linejoin="round"></path><path d="M90.3564 252.585H84.1211" stroke="white" stroke-width="0.708553" stroke-linecap="round" stroke-linejoin="round"></path><path d="M42.457 210.498V216.733" stroke="white" stroke-width="0.708553" stroke-linecap="round" stroke-linejoin="round"></path><path d="M45.5712 213.616H39.3359" stroke="white" stroke-width="0.708553" stroke-linecap="round" stroke-linejoin="round"></path><path d="M71.0781 136.383V142.76" stroke="white" stroke-width="0.708553" stroke-linecap="round" stroke-linejoin="round"></path><path d="M74.334 139.5H67.957" stroke="white" stroke-width="0.708553" stroke-linecap="round" stroke-linejoin="round"></path><path d="M38.3477 126.038V132.415" stroke="white" stroke-width="0.708553" stroke-linecap="round" stroke-linejoin="round"></path><path d="M41.4618 129.297H35.2266" stroke="white" stroke-width="0.708553" stroke-linecap="round" stroke-linejoin="round"></path><path d="M61.582 84.6577V90.893" stroke="white" stroke-width="0.708553" stroke-linecap="round" stroke-linejoin="round"></path><path d="M64.6962 87.7754H58.4609" stroke="white" stroke-width="0.708553" stroke-linecap="round" stroke-linejoin="round"></path><path d="M93.4648 114.985V121.22" stroke="white" stroke-width="0.708553" stroke-linecap="round" stroke-linejoin="round"></path><path d="M96.5801 118.103H90.2031" stroke="white" stroke-width="0.708553" stroke-linecap="round" stroke-linejoin="round"></path><path d="M91.9045 221.976C87.0864 222.968 82.4099 219.992 81.418 215.173C80.426 210.355 83.4019 205.679 88.2201 204.687C90.3457 204.262 92.3297 204.545 94.0302 205.395C91.196 202.845 87.2281 201.569 83.2602 202.42C76.7415 203.837 72.6319 210.214 74.049 216.732C75.4661 223.251 81.8431 227.361 88.3618 225.943C92.3297 225.093 95.4473 222.259 97.0061 218.858C95.7307 220.417 94.0302 221.55 91.9045 221.976Z" fill="white" stroke="#0A0F26" stroke-width="0.708553" stroke-miterlimit="10" stroke-linecap="round" stroke-linejoin="round"></path><path d="M60.168 237.423L62.1519 236.714C62.7188 236.572 63.2856 236.431 63.7107 236.572" stroke="white" stroke-width="0.708553" stroke-linecap="round" stroke-linejoin="round"></path><path d="M37.3555 245.357L39.3394 244.649" stroke="white" stroke-width="0.708553" stroke-linecap="round" stroke-linejoin="round"></path><path d="M60.1722 237.422C60.8808 238.272 61.3059 239.264 61.731 240.398C62.1562 241.531 62.2979 242.665 62.2979 243.657C62.4396 248.617 59.4637 253.293 54.5038 254.994C49.5439 256.694 44.3006 254.852 41.4664 250.884C40.7579 250.034 40.3328 249.042 39.9076 247.908C39.4825 246.775 39.3408 245.641 39.3408 244.649C39.1991 239.689 42.175 235.013 47.1349 233.312C51.953 231.612 57.338 233.454 60.1722 237.422Z" fill="#FECB80" stroke="#0A0F26" stroke-width="0.708553" stroke-miterlimit="10" stroke-linecap="round" stroke-linejoin="round"></path><path d="M63.7125 236.713C64.8462 236.855 65.8382 237.705 66.2633 238.981C66.405 239.264 66.405 239.548 66.405 239.973C66.405 241.39 65.5548 242.807 64.1377 243.232L62.1537 243.941L41.3223 251.168L39.3383 251.876C37.6378 252.443 35.6539 251.593 35.087 249.751C34.9453 249.467 34.9453 249.184 34.9453 248.759C34.9453 247.342 35.7956 245.925 37.2127 245.499" stroke="white" stroke-width="0.708553" stroke-linecap="round" stroke-linejoin="round"></path><path d="M53.229 238.981C54.2464 238.981 55.0712 238.156 55.0712 237.139C55.0712 236.121 54.2464 235.296 53.229 235.296C52.2115 235.296 51.3867 236.121 51.3867 237.139C51.3867 238.156 52.2115 238.981 53.229 238.981Z" fill="white"></path><path d="M51.5179 158.915C50.2425 150.554 42.3067 144.744 33.8041 146.019C30.6864 146.586 27.8522 148.003 25.7266 149.987V172.519C29.1276 175.637 33.8041 177.337 38.6222 176.487C47.1248 175.212 52.935 167.418 51.5179 158.915Z" fill="#FEA82C" stroke="#0A0F26" stroke-width="0.708553" stroke-linecap="round" stroke-linejoin="round"></path><path d="M41.3205 159.056C43.5902 159.056 45.4302 157.216 45.4302 154.947C45.4302 152.677 43.5902 150.837 41.3205 150.837C39.0509 150.837 37.2109 152.677 37.2109 154.947C37.2109 157.216 39.0509 159.056 41.3205 159.056Z" fill="white"></path><path d="M186.992 269.59H59.0273V302.467H186.992V269.59Z" fill="#FEA82C" stroke="#0A0F26" stroke-width="0.708553" stroke-miterlimit="10" stroke-linecap="round" stroke-linejoin="round"></path><path d="M220.863 302.609H92.8984V335.486H220.863V302.609Z" fill="#FEA82C" stroke="#0A0F26" stroke-width="0.708553" stroke-miterlimit="10" stroke-linecap="round" stroke-linejoin="round"></path><path d="M215.902 206.671L167.437 221.834C163.327 223.109 160.918 227.361 161.769 231.612L170.413 269.874H135.41C126.624 269.874 118.972 276.534 118.405 285.32C117.838 294.957 125.349 302.892 134.844 302.892H177.782H187.135L179.766 270.015L171.121 230.337L230.782 211.631" fill="white"></path><path d="M215.902 206.671L167.437 221.834C163.327 223.109 160.918 227.361 161.769 231.612L170.413 269.874H135.41C126.624 269.874 118.972 276.534 118.405 285.32C117.838 294.957 125.349 302.892 134.844 302.892H177.782H187.135L179.766 270.015L171.121 230.337L230.782 211.631" stroke="#0A0F26" stroke-width="0.708553" stroke-miterlimit="10" stroke-linecap="round" stroke-linejoin="round"></path><path d="M234.469 210.355L246.231 322.448H208.536C199.467 322.448 192.098 329.817 192.098 338.887C192.098 347.956 199.467 355.325 208.536 355.325H253.6H258.985L243.68 210.355" fill="white"></path><path d="M234.469 210.355L246.231 322.448H208.536C199.467 322.448 192.098 329.817 192.098 338.887C192.098 347.956 199.467 355.325 208.536 355.325H253.6H258.985L243.68 210.355" stroke="#0A0F26" stroke-width="0.708553" stroke-miterlimit="10" stroke-linecap="round" stroke-linejoin="round"></path><path d="M204.308 118.051L174.208 187.356L123.863 136.726L117.422 143.138L168.599 194.745C172.714 198.804 179.505 197.46 181.827 192.295L212.469 121.768L204.308 118.051Z" fill="white" stroke="#0A0F26" stroke-width="0.708553" stroke-miterlimit="10" stroke-linecap="round" stroke-linejoin="round"></path><path d="M293.847 230.054L157.238 197.319L177.928 111.3L215.623 120.37L314.395 144.035L293.847 230.054Z" fill="white" stroke="#0A0F26" stroke-width="0.708553" stroke-miterlimit="10" stroke-linecap="round" stroke-linejoin="round"></path><path d="M256.152 175.495L293.847 230.053" stroke="#0A0F26" stroke-width="0.708553" stroke-miterlimit="10" stroke-linecap="round" stroke-linejoin="round"></path><path d="M157.238 197.318L215.623 165.858" stroke="#0A0F26" stroke-width="0.708553" stroke-miterlimit="10" stroke-linecap="round" stroke-linejoin="round"></path><path d="M177.926 111.3L231.492 188.816L314.393 144.035" stroke="#0A0F26" stroke-width="0.708553" stroke-miterlimit="10" stroke-linecap="round" stroke-linejoin="round"></path><path d="M317.087 274.833L320.063 293.823L324.314 293.114C332.392 291.839 338.06 284.186 336.785 276.109L336.076 271.858C335.226 266.614 330.408 263.071 325.164 263.78C319.921 264.772 316.237 269.59 317.087 274.833Z" fill="white" stroke="#0A0F26" stroke-width="0.708553" stroke-miterlimit="10"></path><path d="M304.462 302.042L243.385 286.312C239.7 285.32 237.433 281.636 238.425 277.951L267.475 165.008C268.467 161.324 272.152 159.056 275.836 160.048L336.914 175.778C340.598 176.77 342.865 180.455 341.873 184.139L312.823 297.082C311.973 300.767 308.146 303.034 304.462 302.042Z" fill="#5A7682" stroke="#0A0F26" stroke-width="0.708553" stroke-linecap="round" stroke-linejoin="round"></path><path d="M283.49 287.021C299.925 287.021 313.249 273.697 313.249 257.262C313.249 240.826 299.925 227.502 283.49 227.502C267.054 227.502 253.73 240.826 253.73 257.262C253.73 273.697 267.054 287.021 283.49 287.021Z" fill="#0A0F26" stroke="#0A0F26" stroke-width="0.708553" stroke-miterlimit="10"></path><path d="M294.111 259.954C293.402 259.812 292.694 260.237 292.41 260.804C290.568 265.197 285.75 267.606 280.932 266.473C276.114 265.197 273.138 260.663 273.705 255.986C273.846 255.278 273.421 254.569 272.713 254.427L260.1 251.168C259.25 251.026 258.542 251.451 258.258 252.302C255.707 265.481 263.785 278.66 276.964 282.061C290.143 285.462 303.606 277.951 307.715 265.056C307.999 264.347 307.432 263.497 306.723 263.213L294.111 259.954Z" fill="#7A95A1" stroke="#0A0F26" stroke-width="0.708553" stroke-linecap="round" stroke-linejoin="round"></path><path d="M285.612 248.901C282.211 248.051 278.668 250.035 277.676 253.577L290.288 256.837C291.138 253.294 289.013 249.751 285.612 248.901Z" fill="#7A95A1" stroke="#0A0F26" stroke-width="0.708553" stroke-linecap="round" stroke-linejoin="round"></path><path d="M298.511 218.716C309.468 218.716 318.351 209.834 318.351 198.877C318.351 187.92 309.468 179.037 298.511 179.037C287.554 179.037 278.672 187.92 278.672 198.877C278.672 209.834 287.554 218.716 298.511 218.716Z" fill="#0A0F26" stroke="#0A0F26" stroke-width="0.708553" stroke-miterlimit="10"></path><path d="M305.601 200.719C305.175 200.577 304.75 200.861 304.467 201.286C303.192 204.262 300.074 205.82 296.815 204.97C293.697 204.12 291.571 201.144 291.996 198.026C291.996 197.601 291.713 197.034 291.288 197.034L282.927 194.909C282.36 194.767 281.793 195.05 281.793 195.617C280.093 204.403 285.478 213.189 294.264 215.457C303.05 217.724 311.978 212.764 314.812 204.12C314.954 203.553 314.67 202.986 314.103 202.844L305.601 200.719Z" fill="#7A95A1" stroke="#0A0F26" stroke-width="0.708553" stroke-linecap="round" stroke-linejoin="round"></path><path d="M299.931 193.349C297.663 192.782 295.254 194.199 294.688 196.467L303.048 198.592C303.615 196.325 302.198 193.916 299.931 193.349Z" fill="#7A95A1" stroke="#0A0F26" stroke-width="0.708553" stroke-linecap="round" stroke-linejoin="round"></path><path d="M307.737 286.313C307.029 280.361 311.705 275.118 317.941 275.543C322.617 275.826 326.302 279.652 326.868 284.329L328.711 298.925C329.844 307.711 323.609 315.789 314.823 316.922L311.705 317.347L292.574 319.756L289.457 320.182C280.671 321.315 272.593 315.08 271.46 306.294L269.617 291.698C269.051 287.021 271.601 282.487 275.994 281.069C281.946 279.086 287.898 283.053 288.607 289.005C287.898 283.762 291.724 278.944 296.967 278.235C302.211 277.243 307.029 280.928 307.737 286.313Z" fill="white" stroke="#0A0F26" stroke-width="0.708553" stroke-miterlimit="10"></path><path d="M307.738 286.312L309.722 302.467" stroke="#0A0F26" stroke-width="0.708553" stroke-miterlimit="10" stroke-linecap="round" stroke-linejoin="round"></path><path d="M288.609 288.721L290.735 304.876" stroke="#0A0F26" stroke-width="0.708553" stroke-miterlimit="10" stroke-linecap="round" stroke-linejoin="round"></path><path d="M219.447 185.556C217.463 187.115 218.03 190.233 220.298 191.225C221.715 191.791 222.423 193.208 222.423 194.626C222.14 197.176 224.691 199.019 226.958 198.027C228.375 197.46 229.934 197.885 230.784 199.019C232.343 201.003 235.461 200.436 236.453 198.168C237.019 196.751 238.437 196.043 239.854 196.043C242.404 196.326 244.247 193.775 243.255 191.508C242.688 190.091 243.113 188.532 244.247 187.682C246.231 186.123 245.664 183.005 243.396 182.013C241.979 181.446 241.271 180.029 241.271 178.612C241.554 176.062 239.003 174.219 236.736 175.211C235.319 175.778 233.76 175.353 232.91 174.219C231.351 172.235 228.233 172.802 227.241 175.07C226.675 176.487 225.257 177.195 223.84 177.195C221.29 176.912 219.447 179.463 220.439 181.73C220.864 183.005 220.581 184.564 219.447 185.556Z" fill="#FEA82C" stroke="#0A0F26" stroke-width="0.708553" stroke-miterlimit="10" stroke-linecap="round" stroke-linejoin="round"></path><path d="M88.0374 26.3289C80.9651 27.9462 73.6837 32.0077 67.6339 38.3174C67.5663 38.4846 67.3991 38.417 67.3315 38.5843C61.3493 44.7267 57.6407 51.9819 56.1094 59.1441C54.2372 68.1136 56.0506 76.6267 61.9936 82.1395C63.3957 83.4839 64.933 84.4938 66.5377 85.3365L66.705 85.4041C77.6715 91.0007 93.6943 86.9686 105.189 74.8832C116.684 62.7978 120.155 46.4989 113.962 35.8275C113.862 35.5927 113.695 35.5252 113.595 35.2904C112.663 33.7466 111.662 32.3701 110.36 31.2605C104.986 25.7832 96.6856 24.1811 88.0374 26.3289Z" fill="#1D4A5D"></path><path d="M66.9435 85.3008L94.5593 99.7619L119.133 112.605L130.868 118.707L147.517 127.571C151.26 129.861 156.22 129.141 159.278 125.903C160.185 125.102 160.825 123.999 161.298 122.828C162.447 119.985 162.189 116.769 160.424 113.916L113.773 35.1307C119.799 45.7345 117.125 62.1929 105.563 74.4455C93.9329 86.8654 77.6753 90.9971 66.9435 85.3008Z" fill="#7A95A1"></path><path d="M85.8546 118.901L85.8117 118.884L85.7773 118.853C82.7397 116.12 78.2118 116.173 75.3225 119.139C74.6763 119.813 74.1213 120.719 73.7948 121.528C72.6856 124.274 73.256 127.511 75.5471 129.754C75.5476 129.754 75.548 129.754 75.5484 129.755L90.4356 143.936L90.4362 143.937C91.7885 145.233 93.4005 145.888 95.2207 146.058C97.2565 146.127 99.4609 145.325 101.053 143.712C101.691 143.047 102.1 142.486 102.418 141.723C101.977 141.496 101.605 141.169 101.363 140.896C98.9202 138.501 98.31 135.04 99.4961 132.103L99.4965 132.102L99.4969 132.101L99.4973 132.1L99.4977 132.099L99.4981 132.098L99.4985 132.097L99.4989 132.096L99.4992 132.095L99.4996 132.094L99.5 132.093L99.5004 132.092L99.5008 132.091L99.5012 132.09L99.5016 132.089L99.502 132.088L99.5024 132.088L99.5028 132.087L99.5032 132.086L99.5036 132.085L99.504 132.084L99.5044 132.083L99.5048 132.082L99.5052 132.081L99.5056 132.08L99.506 132.079L99.5064 132.078L99.5068 132.077L99.5072 132.076L99.5075 132.075L99.5079 132.074L99.5083 132.073L99.5087 132.072L99.5091 132.071L99.5095 132.07L99.5099 132.069L99.5103 132.068L99.5107 132.067L99.5111 132.066L99.5115 132.065L99.5119 132.064L99.5123 132.063L99.5127 132.062L99.5131 132.061L99.5135 132.06L99.5138 132.059L99.5142 132.058L99.5146 132.057L99.515 132.056L99.5154 132.055L99.5158 132.054L99.5162 132.053L99.5166 132.052L99.517 132.051L99.5174 132.05L99.5178 132.049L99.5182 132.049L99.5186 132.048L99.5189 132.047L99.5193 132.046L99.5197 132.045L99.5201 132.044L99.5205 132.043L99.5209 132.042L99.5213 132.041L99.5217 132.04L99.5221 132.039L99.5224 132.038L99.5228 132.037L99.5232 132.036L99.5236 132.035L99.524 132.034L99.5244 132.033L99.5248 132.032L99.5252 132.031L99.5256 132.03L99.5259 132.029L99.5263 132.028L99.5267 132.027L99.5271 132.026L99.5275 132.025L99.5279 132.024L99.5283 132.024L99.5286 132.023L99.529 132.022L99.5294 132.021L99.5298 132.02L99.5302 132.019L99.5306 132.018L99.531 132.017L99.5313 132.016L99.5317 132.015L99.5321 132.014L99.5325 132.013L99.5329 132.012L99.5333 132.011L99.5336 132.01L99.534 132.009L99.5344 132.008L99.5348 132.007L99.5352 132.006L99.5355 132.005L99.5359 132.005L99.5363 132.004L99.5367 132.003L99.5371 132.002L99.5374 132.001L99.5378 132L99.5382 131.999L99.5386 131.998L99.5389 131.997L99.5393 131.996L99.5397 131.995L99.5401 131.994L99.5405 131.993L99.5408 131.992L99.5412 131.991L99.5416 131.991L99.542 131.99L99.5423 131.989L99.5427 131.988L99.5431 131.987L99.5435 131.986L99.5438 131.985L99.5442 131.984L99.5446 131.983L99.5449 131.982L99.5453 131.981L99.5457 131.98L99.5461 131.979L99.5464 131.979L99.5468 131.978L99.5472 131.977L99.5475 131.976L99.5479 131.975L99.5483 131.974L99.5486 131.973L99.549 131.972L99.5494 131.971L99.5497 131.97L99.5501 131.969L99.5505 131.969L99.5508 131.968L99.5512 131.967L99.5516 131.966L99.5519 131.965L99.5523 131.964L99.5527 131.963L99.553 131.962L99.5534 131.961L99.5538 131.96L99.5541 131.96L99.5545 131.959L99.5548 131.958L99.5552 131.957L99.5556 131.956L99.5559 131.955L99.5563 131.954L99.5566 131.953L99.557 131.952L99.5573 131.951L99.5577 131.951L99.5581 131.95L99.5584 131.949L99.5588 131.948L99.5591 131.947L99.5595 131.946L99.5598 131.945L99.5602 131.944L99.5605 131.944L99.5609 131.943L99.5612 131.942L99.5616 131.941L99.5619 131.94L99.5623 131.939L99.5626 131.938L99.563 131.938L99.5633 131.937L99.5637 131.936L99.564 131.935L99.5644 131.934L99.5645 131.934L85.9752 118.95L85.975 118.95L85.9745 118.95L85.9741 118.949L85.9737 118.949L85.9733 118.949L85.9728 118.949L85.9724 118.949L85.972 118.949L85.9715 118.948L85.9711 118.948L85.9706 118.948L85.9702 118.948L85.9697 118.948L85.9693 118.947L85.9688 118.947L85.9684 118.947L85.9679 118.947L85.9675 118.947L85.967 118.947L85.9665 118.946L85.9661 118.946L85.9656 118.946L85.9651 118.946L85.9646 118.946L85.9641 118.945L85.9637 118.945L85.9632 118.945L85.9627 118.945L85.9622 118.945L85.9617 118.944L85.9612 118.944L85.9607 118.944L85.9602 118.944L85.9597 118.944L85.9592 118.943L85.9587 118.943L85.9582 118.943L85.9577 118.943L85.9571 118.943L85.9566 118.942L85.9561 118.942L85.9556 118.942L85.955 118.942L85.9545 118.941L85.954 118.941L85.9534 118.941L85.9529 118.941L85.9523 118.941L85.9518 118.94L85.9512 118.94L85.9507 118.94L85.9501 118.94L85.9496 118.939L85.949 118.939L85.9485 118.939L85.9479 118.939L85.9473 118.939L85.9467 118.938L85.9462 118.938L85.9456 118.938L85.945 118.938L85.9444 118.937L85.9438 118.937L85.9432 118.937L85.9427 118.937L85.9421 118.936L85.9415 118.936L85.9409 118.936L85.9402 118.936L85.9396 118.935L85.939 118.935L85.9384 118.935L85.9378 118.935L85.9372 118.934L85.9366 118.934L85.9359 118.934L85.9353 118.934L85.9347 118.933L85.934 118.933L85.9334 118.933L85.9327 118.933L85.9321 118.932L85.9314 118.932L85.9308 118.932L85.9301 118.932L85.9295 118.931L85.9288 118.931L85.9282 118.931L85.9275 118.931L85.9268 118.93L85.9261 118.93L85.9255 118.93L85.9248 118.929L85.9241 118.929L85.9234 118.929L85.9227 118.929L85.922 118.928L85.9213 118.928L85.9206 118.928L85.9199 118.928L85.9192 118.927L85.9185 118.927L85.9178 118.927L85.9171 118.926L85.9164 118.926L85.9157 118.926L85.9149 118.925L85.9142 118.925L85.9135 118.925L85.9127 118.925L85.912 118.924L85.9113 118.924L85.9105 118.924L85.9098 118.923L85.909 118.923L85.9083 118.923L85.9075 118.922L85.9067 118.922L85.906 118.922L85.9052 118.922L85.9044 118.921L85.9037 118.921L85.9029 118.921L85.9021 118.92L85.9013 118.92L85.9005 118.92L85.8997 118.919L85.8989 118.919L85.8981 118.919L85.8973 118.918L85.8965 118.918L85.8957 118.918L85.8949 118.917L85.8941 118.917L85.8933 118.917L85.8924 118.916L85.8916 118.916L85.8908 118.916L85.8899 118.915L85.8891 118.915L85.8883 118.915L85.8874 118.914L85.8866 118.914L85.8857 118.914L85.8849 118.913L85.884 118.913L85.8831 118.913L85.8823 118.912L85.8814 118.912L85.8805 118.912L85.8797 118.911L85.8788 118.911L85.8779 118.911L85.877 118.91L85.8761 118.91L85.8752 118.909L85.8743 118.909L85.8734 118.909L85.8725 118.908L85.8716 118.908L85.8707 118.908L85.8698 118.907L85.8688 118.907L85.8679 118.907L85.867 118.906L85.866 118.906L85.8651 118.905L85.8642 118.905L85.8632 118.905L85.8623 118.904L85.8613 118.904L85.8604 118.903L85.8594 118.903L85.8585 118.903L85.8575 118.902L85.8565 118.902L85.8555 118.902L85.8546 118.901Z" fill="white" stroke="black" stroke-width="0.524935"></path><path d="M85.9844 118.581L86.031 118.6L86.0674 118.635L99.5536 131.52C99.8528 130.915 100.306 130.278 100.837 129.806L109.524 120.557L96.2256 107.897L96.2255 107.897L96.2203 107.892C93.4208 105.073 88.7336 105.054 85.8439 108.021C85.1976 108.695 84.6426 109.601 84.3161 110.41C83.2122 113.143 83.772 116.36 85.8685 118.534L85.8688 118.534L85.8692 118.534L85.8697 118.535L85.8701 118.535L85.8706 118.535L85.871 118.535L85.8715 118.535L85.872 118.536L85.8724 118.536L85.8729 118.536L85.8734 118.536L85.8739 118.536L85.8743 118.537L85.8748 118.537L85.8753 118.537L85.8758 118.537L85.8763 118.537L85.8768 118.538L85.8773 118.538L85.8778 118.538L85.8783 118.538L85.8788 118.538L85.8793 118.539L85.8798 118.539L85.8803 118.539L85.8808 118.539L85.8813 118.539L85.8818 118.54L85.8823 118.54L85.8829 118.54L85.8834 118.54L85.8839 118.54L85.8845 118.541L85.885 118.541L85.8855 118.541L85.8861 118.541L85.8866 118.542L85.8872 118.542L85.8877 118.542L85.8883 118.542L85.8888 118.542L85.8894 118.543L85.8899 118.543L85.8905 118.543L85.8911 118.543L85.8916 118.544L85.8922 118.544L85.8928 118.544L85.8934 118.544L85.894 118.544L85.8945 118.545L85.8951 118.545L85.8957 118.545L85.8963 118.545L85.8969 118.546L85.8975 118.546L85.8981 118.546L85.8987 118.546L85.8993 118.547L85.8999 118.547L85.9006 118.547L85.9012 118.547L85.9018 118.548L85.9024 118.548L85.903 118.548L85.9037 118.548L85.9043 118.549L85.9049 118.549L85.9056 118.549L85.9062 118.549L85.9069 118.55L85.9075 118.55L85.9082 118.55L85.9088 118.55L85.9095 118.551L85.9101 118.551L85.9108 118.551L85.9115 118.552L85.9121 118.552L85.9128 118.552L85.9135 118.552L85.9142 118.553L85.9149 118.553L85.9155 118.553L85.9162 118.553L85.9169 118.554L85.9176 118.554L85.9183 118.554L85.919 118.555L85.9197 118.555L85.9204 118.555L85.9211 118.555L85.9219 118.556L85.9226 118.556L85.9233 118.556L85.924 118.557L85.9248 118.557L85.9255 118.557L85.9262 118.558L85.927 118.558L85.9277 118.558L85.9285 118.558L85.9292 118.559L85.93 118.559L85.9307 118.559L85.9315 118.56L85.9322 118.56L85.933 118.56L85.9338 118.561L85.9345 118.561L85.9353 118.561L85.9361 118.561L85.9369 118.562L85.9377 118.562L85.9384 118.562L85.9392 118.563L85.94 118.563L85.9408 118.563L85.9416 118.564L85.9424 118.564L85.9433 118.564L85.9441 118.565L85.9449 118.565L85.9457 118.565L85.9465 118.566L85.9474 118.566L85.9482 118.566L85.949 118.567L85.9499 118.567L85.9507 118.567L85.9515 118.568L85.9524 118.568L85.9532 118.568L85.9541 118.569L85.955 118.569L85.9558 118.569L85.9567 118.57L85.9576 118.57L85.9584 118.571L85.9593 118.571L85.9602 118.571L85.9611 118.572L85.962 118.572L85.9629 118.572L85.9638 118.573L85.9647 118.573L85.9656 118.573L85.9665 118.574L85.9674 118.574L85.9683 118.574L85.9692 118.575L85.9701 118.575L85.9711 118.576L85.972 118.576L85.9729 118.576L85.9739 118.577L85.9748 118.577L85.9757 118.578L85.9767 118.578L85.9776 118.578L85.9786 118.579L85.9795 118.579L85.9805 118.579L85.9815 118.58L85.9824 118.58L85.9834 118.581L85.9844 118.581Z" fill="white" stroke="black" stroke-width="0.524935"></path><path d="M115.235 114.838C116.024 113.76 117.091 113.101 118.351 112.701L94.6654 100.321C94.1323 102.797 94.7148 105.502 96.7555 107.59L110.05 120.245L115.235 114.838Z" fill="white" stroke="black" stroke-width="0.524935"></path><path d="M102.516 141.692C102.178 142.528 101.673 143.296 101.069 143.83C99.422 145.499 97.309 146.396 95.032 146.255C95.9613 148.77 97.8297 150.886 100.673 152.034C106.126 154.855 120.896 139.88 120.896 139.88L131.629 129.331C134.318 126.526 134.131 122.172 131.494 119.551L130.626 118.811L118.891 112.709C117.55 113.14 116.308 113.806 115.266 114.941L109.889 120.55L101.015 129.998C100.41 130.532 99.9052 131.3 99.635 131.969C99.5675 132.136 99.4999 132.304 99.4999 132.304C98.3516 135.147 98.9432 138.498 101.313 140.817C101.747 141.187 102.182 141.557 102.516 141.692Z" fill="white" stroke="black" stroke-width="0.524935"></path><path d="M88.0374 26.3289L80.2744 14.2457" stroke="white" stroke-width="0.610389" stroke-linecap="round" stroke-linejoin="round"></path><path d="M67.638 38.3149L40.3318 11.5298" stroke="white" stroke-width="0.610389" stroke-linecap="round" stroke-linejoin="round"></path><path d="M56.3441 59.0439L45.4805 52.7108" stroke="white" stroke-width="0.610389" stroke-linecap="round" stroke-linejoin="round"></path><path d="M122.965 129.131L112.142 140.516C109.521 143.153 105.6 143.709 102.526 141.689C102.024 141.486 101.59 141.116 101.323 140.814C98.953 138.495 98.3614 135.144 99.5097 132.301C99.5773 132.134 99.6448 131.967 99.6448 131.967C99.915 131.298 100.42 130.529 101.025 129.995" stroke="#0A0F26" stroke-width="0.610389" stroke-linecap="round" stroke-linejoin="round"></path><path d="M106.029 54.0194L88.0362 26.3279" stroke="white" stroke-width="0.610389" stroke-linecap="round" stroke-linejoin="round"></path><path d="M94.3016 64.2653L67.6289 38.3196" stroke="white" stroke-width="0.610389" stroke-linecap="round" stroke-linejoin="round"></path><path d="M81.6484 73.933L56.3451 59.0443" stroke="white" stroke-width="0.610389" stroke-linecap="round" stroke-linejoin="round"></path></svg>