<svg width="392" height="346" viewBox="0 0 392 346" fill="none" xmlns="http://www.w3.org/2000/svg"><title>Dancing start illustration</title><path d="M260.005 179.822L260.457 178.315C261.211 175.452 259.703 172.437 256.838 171.533L255.48 171.081L256.838 170.478C259.553 169.272 260.91 166.258 260.005 163.395L259.553 162.038L260.91 162.792C263.474 164.148 266.792 163.244 268.451 160.833L269.205 159.627L269.506 161.134C270.11 163.998 272.824 166.107 275.69 165.806L277.198 165.655L276.142 166.861C274.182 169.122 274.332 172.437 276.444 174.547L277.5 175.602H275.991C272.975 175.451 270.411 177.712 270.11 180.576L269.959 182.083L269.054 180.877C267.244 178.466 263.926 177.863 261.513 179.37L260.005 179.822Z" fill="white" stroke="#0A0F26" stroke-width="0.512513" stroke-linecap="round" stroke-linejoin="round"></path><path d="M177.655 177.26L183.537 191.125L85.0537 236.187L79.1719 222.322L177.655 177.26Z" fill="#7A95A1" stroke="#0A0F26" stroke-width="0.512513" stroke-miterlimit="10" stroke-linecap="round" stroke-linejoin="round"></path><path d="M205.255 175.301L192.285 183.891L215.209 233.927L169.512 254.876L173.735 269.796L224.258 246.587C230.592 243.723 233.307 236.338 230.441 230.009L205.255 175.301Z" fill="#7A95A1" stroke="#0A0F26" stroke-width="0.512513" stroke-miterlimit="10" stroke-linecap="round" stroke-linejoin="round"></path><path d="M322.287 96.0268L323.644 98.8903L353.808 85.0249L346.719 63.9255C351.244 61.8156 353.355 56.39 351.244 51.8687C349.132 47.3474 343.703 45.2375 339.178 47.3474L321.835 55.3351C313.54 59.1028 309.92 68.899 313.691 77.188L316.104 82.3122" fill="#7A95A1"></path><path d="M322.287 96.0268L323.644 98.8903L353.808 85.0249L346.719 63.9255C351.244 61.8156 353.355 56.39 351.244 51.8687C349.132 47.3474 343.703 45.2375 339.178 47.3474L321.835 55.3351C313.54 59.1028 309.92 68.899 313.691 77.188L316.104 82.3122" stroke="#0A0F26" stroke-width="0.512513" stroke-miterlimit="10" stroke-linecap="round" stroke-linejoin="round"></path><path d="M321.684 94.6703L328.018 108.536C331.336 115.77 339.782 118.935 347.021 115.619C354.26 112.303 357.427 103.864 354.109 96.6296L346.87 80.6543" fill="#7A95A1"></path><path d="M321.684 94.6703L328.018 108.536C331.336 115.77 339.782 118.935 347.021 115.619C354.26 112.303 357.427 103.864 354.109 96.6296L346.87 80.6543" stroke="#0A0F26" stroke-width="0.512513" stroke-miterlimit="10" stroke-linecap="round" stroke-linejoin="round"></path><path d="M348.074 78.5449L354.258 75.6814C358.782 73.5715 360.894 68.1459 358.782 63.6246C356.671 59.1033 351.242 56.9933 346.717 59.1033L340.383 61.9668" fill="#7A95A1"></path><path d="M348.074 78.5449L354.258 75.6814C358.782 73.5715 360.894 68.1459 358.782 63.6246C356.671 59.1033 351.242 56.9933 346.717 59.1033L340.383 61.9668" stroke="#0A0F26" stroke-width="0.512513" stroke-miterlimit="10" stroke-linecap="round" stroke-linejoin="round"></path><path d="M346.268 75.2284L378.09 60.6095C382.615 58.4996 388.044 60.4588 390.155 65.1308C392.267 69.6521 390.306 75.0777 385.631 77.1876L339.934 98.1363L342.799 104.315" fill="#7A95A1"></path><path d="M346.268 75.2284L378.09 60.6095C382.615 58.4996 388.044 60.4588 390.155 65.1308C392.267 69.6521 390.306 75.0777 385.631 77.1876L339.934 98.1363L342.799 104.315" stroke="#0A0F26" stroke-width="0.512513" stroke-miterlimit="10" stroke-linecap="round" stroke-linejoin="round"></path><path d="M316.255 80.6543L250.047 110.947L256.23 124.662L321.685 94.6703" fill="#7A95A1"></path><path d="M316.255 80.6543L250.047 110.947L256.23 124.662L321.685 94.6703" stroke="#0A0F26" stroke-width="0.512513" stroke-miterlimit="10" stroke-linecap="round" stroke-linejoin="round"></path><mask id="mask0_1866_18536" style="mask-type:luminance" maskUnits="userSpaceOnUse" x="122" y="37" width="162" height="162"><path d="M203.137 198.36C247.616 198.36 283.673 162.328 283.673 117.881C283.673 73.4331 247.616 37.4014 203.137 37.4014C158.659 37.4014 122.602 73.4331 122.602 117.881C122.602 162.328 158.659 198.36 203.137 198.36Z" fill="white"></path></mask><g mask="url(#mask0_1866_18536)"><path d="M127.881 30.3075L115.363 30.3271L115.383 42.8368L127.901 42.8171L127.881 30.3075Z" fill="#5A7682"></path><path d="M140.397 30.3075L127.879 30.3271L127.899 42.8368L140.416 42.8171L140.397 30.3075Z" fill="#FA9119"></path><path d="M152.92 30.3075L140.402 30.3271L140.422 42.8368L152.94 42.8171L152.92 30.3075Z" fill="#A5B7BE"></path><path d="M165.432 30.3075L152.914 30.3271L152.934 42.8368L165.451 42.8171L165.432 30.3075Z" fill="#5A7682"></path><path d="M127.881 42.8172L115.363 42.8369L115.383 55.3465L127.901 55.3268L127.881 42.8172Z" fill="#FECB80"></path><path d="M140.397 42.8172L127.879 42.8369L127.899 55.3465L140.416 55.3268L140.397 42.8172Z" fill="#7A95A1"></path><path d="M152.92 42.8163L140.402 42.8359L140.422 55.3456L152.94 55.3259L152.92 42.8163Z" fill="#5A7682"></path><path d="M165.432 42.8172L152.914 42.8369L152.934 55.3465L165.451 55.3269L165.432 42.8172Z" fill="#A5B7BE"></path><path d="M127.881 55.326L115.363 55.3457L115.383 67.8553L127.901 67.8356L127.881 55.326Z" fill="#A5B7BE"></path><path d="M140.397 55.326L127.879 55.3457L127.899 67.8553L140.416 67.8356L140.397 55.326Z" fill="#FECB80"></path><path d="M152.92 55.326L140.402 55.3457L140.422 67.8553L152.94 67.8356L152.92 55.326Z" fill="#7A95A1"></path><path d="M165.432 55.326L152.914 55.3457L152.934 67.8553L165.451 67.8356L165.432 55.326Z" fill="#FA9119"></path><path d="M203.084 42.8293L215.602 42.8096L215.582 30.2999L203.064 30.3196L203.084 42.8293Z" fill="#5A7682"></path><path d="M190.553 42.7179L203.07 42.6982L203.051 30.1886L190.533 30.2083L190.553 42.7179Z" fill="#FA9119"></path><path d="M178.017 42.757L190.535 42.7373L190.515 30.2277L177.998 30.2474L178.017 42.757Z" fill="#A5B7BE"></path><path d="M165.486 42.796L178.004 42.7764L177.984 30.2667L165.466 30.2864L165.486 42.796Z" fill="#7A95A1"></path><path d="M203.123 55.2043L215.641 55.1846L215.621 42.6749L203.103 42.6946L203.123 55.2043Z" fill="#FECB80"></path><path d="M190.596 55.2433L203.113 55.2236L203.094 42.714L190.576 42.7337L190.596 55.2433Z" fill="#7A95A1"></path><path d="M178.056 55.2834L190.574 55.2637L190.555 42.754L178.037 42.7737L178.056 55.2834Z" fill="#5A7682"></path><path d="M165.533 55.3224L178.051 55.3027L178.031 42.7931L165.513 42.8128L165.533 55.3224Z" fill="#FECB80"></path><path d="M203.017 67.7306L215.535 67.7109L215.515 55.2013L202.998 55.221L203.017 67.7306Z" fill="#A5B7BE"></path><path d="M190.635 67.7697L203.152 67.75L203.133 55.2404L190.615 55.2601L190.635 67.7697Z" fill="#FECB80"></path><path d="M178.096 67.8087L190.613 67.7891L190.594 55.2794L178.076 55.2991L178.096 67.8087Z" fill="#7A95A1"></path><path d="M165.564 67.8488L178.082 67.8291L178.062 55.3195L165.545 55.3392L165.564 67.8488Z" fill="#A5B7BE"></path><path d="M127.881 67.9862L115.363 68.0059L115.383 80.5155L127.901 80.4958L127.881 67.9862Z" fill="#5A7682"></path><path d="M140.397 67.8348L127.879 67.8545L127.899 80.3641L140.416 80.3444L140.397 67.8348Z" fill="#FA9119"></path><path d="M152.92 67.8348L140.402 67.8545L140.422 80.3641L152.94 80.3444L152.92 67.8348Z" fill="#A5B7BE"></path><path d="M165.432 67.8348L152.914 67.8545L152.934 80.3641L165.451 80.3444L165.432 67.8348Z" fill="#7A95A1"></path><path d="M127.881 80.494L115.363 80.5137L115.383 93.0233L127.901 93.0036L127.881 80.494Z" fill="#FECB80"></path><path d="M140.397 80.3436L127.879 80.3633L127.899 92.8729L140.416 92.8532L140.397 80.3436Z" fill="#7A95A1"></path><path d="M152.92 80.3436L140.402 80.3633L140.422 92.8729L152.94 92.8532L152.92 80.3436Z" fill="#5A7682"></path><path d="M165.584 80.3436L153.066 80.3633L153.086 92.8729L165.604 92.8532L165.584 80.3436Z" fill="#A5B7BE"></path><path d="M128.033 93.0037L115.516 93.0234L115.535 105.533L128.053 105.513L128.033 93.0037Z" fill="#A5B7BE"></path><path d="M140.549 93.0037L128.031 93.0234L128.051 105.533L140.569 105.513L140.549 93.0037Z" fill="#FECB80"></path><path d="M153.069 92.8534L140.551 92.873L140.57 105.383L153.088 105.363L153.069 92.8534Z" fill="#7A95A1"></path><path d="M165.584 92.8524L153.066 92.8721L153.086 105.382L165.604 105.362L165.584 92.8524Z" fill="#FA9119"></path><path d="M177.959 67.8358L165.441 67.8555L165.461 80.3651L177.979 80.3454L177.959 67.8358Z" fill="#5A7682"></path><path d="M190.623 67.8348L178.105 67.8545L178.125 80.3641L190.643 80.3444L190.623 67.8348Z" fill="#FA9119"></path><path d="M203.143 67.8348L190.625 67.8545L190.645 80.3641L203.162 80.3444L203.143 67.8348Z" fill="#A5B7BE"></path><path d="M215.662 67.8348L203.145 67.8545L203.164 80.3641L215.682 80.3444L215.662 67.8348Z" fill="#7A95A1"></path><path d="M178.111 80.3436L165.594 80.3633L165.613 92.8729L178.131 92.8532L178.111 80.3436Z" fill="#FECB80"></path><path d="M190.623 80.3436L178.105 80.3633L178.125 92.8729L190.643 92.8532L190.623 80.3436Z" fill="#7A95A1"></path><path d="M203.143 80.3436L190.625 80.3633L190.645 92.8729L203.162 92.8532L203.143 80.3436Z" fill="#5A7682"></path><path d="M215.662 80.3436L203.145 80.3633L203.164 92.8729L215.682 92.8532L215.662 80.3436Z" fill="#A5B7BE"></path><path d="M178.111 92.8524L165.594 92.8721L165.613 105.382L178.131 105.362L178.111 92.8524Z" fill="#A5B7BE"></path><path d="M190.623 92.8524L178.105 92.8721L178.125 105.382L190.643 105.362L190.623 92.8524Z" fill="#FECB80"></path><path d="M203.143 92.8524L190.625 92.8721L190.645 105.382L203.162 105.362L203.143 92.8524Z" fill="#7A95A1"></path><path d="M215.662 92.8524L203.145 92.8721L203.164 105.382L215.682 105.362L215.662 92.8524Z" fill="#FA9119"></path><path d="M253.224 42.671L265.742 42.6514L265.722 30.1417L253.205 30.1614L253.224 42.671Z" fill="#5A7682"></path><path d="M240.693 42.7101L253.211 42.6904L253.191 30.1808L240.674 30.2005L240.693 42.7101Z" fill="#FA9119"></path><path d="M228.154 42.7502L240.672 42.7305L240.652 30.2208L228.134 30.2405L228.154 42.7502Z" fill="#A5B7BE"></path><path d="M215.619 42.7892L228.137 42.7695L228.117 30.2599L215.599 30.2796L215.619 42.7892Z" fill="#7A95A1"></path><path d="M253.107 55.1974L265.625 55.1777L265.605 42.6681L253.088 42.6878L253.107 55.1974Z" fill="#FECB80"></path><path d="M240.576 55.2365L253.094 55.2168L253.074 42.7072L240.556 42.7268L240.576 55.2365Z" fill="#7A95A1"></path><path d="M228.197 55.2755L240.715 55.2559L240.695 42.7462L228.177 42.7659L228.197 55.2755Z" fill="#5A7682"></path><path d="M215.662 55.3156L228.18 55.2959L228.16 42.7863L215.642 42.8059L215.662 55.3156Z" fill="#A5B7BE"></path><path d="M253.15 67.7228L265.668 67.7031L265.648 55.1935L253.131 55.2132L253.15 67.7228Z" fill="#7A95A1"></path><path d="M240.611 67.7628L253.129 67.7432L253.109 55.2335L240.591 55.2532L240.611 67.7628Z" fill="#FECB80"></path><path d="M228.084 67.8029L240.602 67.7832L240.582 55.2736L228.064 55.2933L228.084 67.8029Z" fill="#7A95A1"></path><path d="M215.549 67.8419L228.066 67.8223L228.047 55.3126L215.529 55.3323L215.549 67.8419Z" fill="#FA9119"></path><path d="M228.174 67.6844L215.656 67.7041L215.676 80.2137L228.194 80.194L228.174 67.6844Z" fill="#5A7682"></path><path d="M240.69 67.6844L228.172 67.7041L228.192 80.2137L240.709 80.194L240.69 67.6844Z" fill="#FA9119"></path><path d="M253.213 67.6844L240.695 67.7041L240.715 80.2137L253.233 80.194L253.213 67.6844Z" fill="#A5B7BE"></path><path d="M265.729 67.6844L253.211 67.7041L253.231 80.2137L265.748 80.194L265.729 67.6844Z" fill="#5A7682"></path><path d="M228.174 80.3436L215.656 80.3633L215.676 92.8729L228.194 92.8532L228.174 80.3436Z" fill="#FECB80"></path><path d="M240.69 80.1932L228.172 80.2129L228.192 92.7225L240.709 92.7028L240.69 80.1932Z" fill="#7A95A1"></path><path d="M253.213 80.1932L240.695 80.2129L240.715 92.7225L253.233 92.7028L253.213 80.1932Z" fill="#5A7682"></path><path d="M265.729 80.1932L253.211 80.2129L253.231 92.7225L265.748 92.7028L265.729 80.1932Z" fill="#A5B7BE"></path><path d="M228.174 92.8534L215.656 92.873L215.676 105.383L228.194 105.363L228.174 92.8534Z" fill="#A5B7BE"></path><path d="M240.69 92.702L228.172 92.7217L228.192 105.231L240.709 105.212L240.69 92.702Z" fill="#FECB80"></path><path d="M253.213 92.702L240.695 92.7217L240.715 105.231L253.233 105.212L253.213 92.702Z" fill="#7A95A1"></path><path d="M265.729 92.702L253.211 92.7217L253.231 105.231L265.748 105.212L265.729 92.702Z" fill="#FA9119"></path><path d="M290.764 55.1756L278.246 55.1953L278.266 67.7049L290.784 67.6852L290.764 55.1756Z" fill="#FA9119"></path><path d="M278.154 42.5929L290.672 42.5732L290.652 30.0636L278.134 30.0833L278.154 42.5929Z" fill="#5A7682"></path><path d="M265.615 42.632L278.133 42.6123L278.113 30.1027L265.595 30.1224L265.615 42.632Z" fill="#FA9119"></path><path d="M278.193 55.1183L290.711 55.0986L290.691 42.589L278.174 42.6087L278.193 55.1183Z" fill="#FECB80"></path><path d="M265.658 55.1584L278.176 55.1387L278.156 42.629L265.638 42.6487L265.658 55.1584Z" fill="#7A95A1"></path><path d="M265.697 67.6837L278.215 67.6641L278.195 55.1544L265.677 55.1741L265.697 67.6837Z" fill="#FECB80"></path><path d="M278.248 67.6844L265.73 67.7041L265.75 80.2137L278.268 80.194L278.248 67.6844Z" fill="#A5B7BE"></path><path d="M290.764 67.6844L278.246 67.7041L278.266 80.2137L290.784 80.194L290.764 67.6844Z" fill="#5A7682"></path><path d="M278.248 80.1932L265.73 80.2129L265.75 92.7225L278.268 92.7028L278.248 80.1932Z" fill="#5A7682"></path><path d="M290.764 80.1932L278.246 80.2129L278.266 92.7225L290.784 92.7028L290.764 80.1932Z" fill="#A5B7BE"></path><path d="M128.037 105.513L115.52 105.532L115.539 118.042L128.057 118.022L128.037 105.513Z" fill="#FECB80"></path><path d="M140.553 105.513L128.035 105.532L128.055 118.042L140.573 118.022L140.553 105.513Z" fill="#7A95A1"></path><path d="M153.072 105.362L140.555 105.382L140.574 117.891L153.092 117.872L153.072 105.362Z" fill="#5A7682"></path><path d="M165.584 105.362L153.066 105.382L153.086 117.891L165.604 117.872L165.584 105.362Z" fill="#A5B7BE"></path><path d="M178.111 105.362L165.594 105.382L165.613 117.891L178.131 117.872L178.111 105.362Z" fill="#FECB80"></path><path d="M190.627 105.362L178.109 105.382L178.129 117.891L190.647 117.872L190.627 105.362Z" fill="#7A95A1"></path><path d="M203.147 105.362L190.629 105.382L190.649 117.891L203.166 117.872L203.147 105.362Z" fill="#5A7682"></path><path d="M215.658 105.362L203.141 105.382L203.16 117.891L215.678 117.872L215.658 105.362Z" fill="#A5B7BE"></path><path d="M228.174 105.362L215.656 105.382L215.676 117.891L228.194 117.872L228.174 105.362Z" fill="#FECB80"></path><path d="M240.69 105.362L228.172 105.382L228.192 117.891L240.709 117.872L240.69 105.362Z" fill="#7A95A1"></path><path d="M253.213 105.212L240.695 105.231L240.715 117.741L253.233 117.721L253.213 105.212Z" fill="#5A7682"></path><path d="M265.729 105.212L253.211 105.231L253.231 117.741L265.748 117.721L265.729 105.212Z" fill="#A5B7BE"></path><path d="M278.248 105.212L265.73 105.231L265.75 117.741L278.268 117.721L278.248 105.212Z" fill="#5A7682"></path><path d="M290.764 105.212L278.246 105.231L278.266 117.741L290.784 117.721L290.764 105.212Z" fill="#A5B7BE"></path><path d="M278.248 92.702L265.73 92.7217L265.75 105.231L278.268 105.212L278.248 92.702Z" fill="#7A95A1"></path><path d="M290.764 92.702L278.246 92.7217L278.266 105.231L290.784 105.212L290.764 92.702Z" fill="#FA9119"></path><path d="M128.037 118.022L115.52 118.042L115.539 130.552L128.057 130.532L128.037 118.022Z" fill="#5A7682"></path><path d="M140.553 118.021L128.035 118.041L128.055 130.551L140.573 130.531L140.553 118.021Z" fill="#FA9119"></path><path d="M153.072 117.871L140.555 117.891L140.574 130.4L153.092 130.381L153.072 117.871Z" fill="#A5B7BE"></path><path d="M165.584 117.871L153.066 117.891L153.086 130.4L165.604 130.381L165.584 117.871Z" fill="#5A7682"></path><path d="M128.037 130.53L115.52 130.55L115.539 143.059L128.057 143.04L128.037 130.53Z" fill="#FECB80"></path><path d="M140.553 130.531L128.035 130.551L128.055 143.06L140.573 143.041L140.553 130.531Z" fill="#7A95A1"></path><path d="M153.072 130.53L140.555 130.55L140.574 143.059L153.092 143.04L153.072 130.53Z" fill="#5A7682"></path><path d="M165.584 130.38L153.066 130.399L153.086 142.909L165.604 142.889L165.584 130.38Z" fill="#A5B7BE"></path><path d="M128.037 143.04L115.52 143.06L115.539 155.569L128.057 155.549L128.037 143.04Z" fill="#A5B7BE"></path><path d="M140.553 143.04L128.035 143.06L128.055 155.569L140.573 155.549L140.553 143.04Z" fill="#FECB80"></path><path d="M153.072 143.039L140.555 143.059L140.574 155.568L153.092 155.549L153.072 143.039Z" fill="#7A95A1"></path><path d="M165.584 142.889L153.066 142.908L153.086 155.418L165.604 155.398L165.584 142.889Z" fill="#FA9119"></path><path d="M203.217 130.361L215.734 130.341L215.715 117.831L203.197 117.851L203.217 130.361Z" fill="#5A7682"></path><path d="M190.681 130.4L203.199 130.38L203.18 117.87L190.662 117.89L190.681 130.4Z" fill="#FA9119"></path><path d="M178.146 130.439L190.664 130.419L190.644 117.909L178.127 117.929L178.146 130.439Z" fill="#A5B7BE"></path><path d="M165.619 130.479L178.137 130.459L178.117 117.949L165.599 117.969L165.619 130.479Z" fill="#7A95A1"></path><path d="M203.26 142.887L215.777 142.867L215.758 130.358L203.24 130.377L203.26 142.887Z" fill="#FECB80"></path><path d="M190.728 142.926L203.246 142.906L203.226 130.397L190.709 130.416L190.728 142.926Z" fill="#7A95A1"></path><path d="M178.185 142.965L190.703 142.945L190.683 130.436L178.166 130.455L178.185 142.965Z" fill="#5A7682"></path><path d="M165.666 143.005L178.184 142.985L178.164 130.476L165.646 130.495L165.666 143.005Z" fill="#FECB80"></path><path d="M203.295 155.412L215.812 155.393L215.793 142.883L203.275 142.903L203.295 155.412Z" fill="#A5B7BE"></path><path d="M190.767 155.451L203.285 155.432L203.265 142.922L190.748 142.942L190.767 155.451Z" fill="#FECB80"></path><path d="M178.224 155.491L190.742 155.472L190.722 142.962L178.205 142.982L178.224 155.491Z" fill="#7A95A1"></path><path d="M165.697 155.531L178.215 155.512L178.195 143.002L165.677 143.022L165.697 155.531Z" fill="#A5B7BE"></path><path d="M128.037 155.549L115.52 155.568L115.539 168.078L128.057 168.058L128.037 155.549Z" fill="#5A7682"></path><path d="M140.553 155.549L128.035 155.568L128.055 168.078L140.573 168.058L140.553 155.549Z" fill="#FA9119"></path><path d="M153.072 155.549L140.555 155.568L140.574 168.078L153.092 168.058L153.072 155.549Z" fill="#A5B7BE"></path><path d="M165.584 155.549L153.066 155.568L153.086 168.078L165.604 168.058L165.584 155.549Z" fill="#7A95A1"></path><path d="M128.037 168.057L115.52 168.077L115.539 180.587L128.057 180.567L128.037 168.057Z" fill="#FECB80"></path><path d="M140.553 168.057L128.035 168.077L128.055 180.587L140.573 180.567L140.553 168.057Z" fill="#7A95A1"></path><path d="M153.072 168.057L140.555 168.077L140.574 180.587L153.092 180.567L153.072 168.057Z" fill="#5A7682"></path><path d="M165.584 168.057L153.066 168.077L153.086 180.587L165.604 180.567L165.584 168.057Z" fill="#A5B7BE"></path><path d="M128.037 180.567L115.52 180.587L115.539 193.097L128.057 193.077L128.037 180.567Z" fill="#A5B7BE"></path><path d="M140.553 180.567L128.035 180.587L128.055 193.097L140.573 193.077L140.553 180.567Z" fill="#FECB80"></path><path d="M153.225 180.566L140.707 180.586L140.727 193.096L153.244 193.076L153.225 180.566Z" fill="#7A95A1"></path><path d="M165.74 180.566L153.223 180.586L153.242 193.096L165.76 193.076L165.74 180.566Z" fill="#FA9119"></path><path d="M178.111 155.397L165.594 155.417L165.613 167.927L178.131 167.907L178.111 155.397Z" fill="#5A7682"></path><path d="M190.623 155.397L178.105 155.417L178.125 167.927L190.643 167.907L190.623 155.397Z" fill="#FA9119"></path><path d="M203.295 155.397L190.777 155.417L190.797 167.927L203.315 167.907L203.295 155.397Z" fill="#A5B7BE"></path><path d="M215.811 155.397L203.293 155.417L203.313 167.927L215.83 167.907L215.811 155.397Z" fill="#7A95A1"></path><path d="M178.264 167.906L165.746 167.926L165.766 180.435L178.284 180.416L178.264 167.906Z" fill="#FECB80"></path><path d="M190.772 167.906L178.254 167.926L178.274 180.435L190.791 180.416L190.772 167.906Z" fill="#7A95A1"></path><path d="M203.295 167.906L190.777 167.926L190.797 180.435L203.315 180.416L203.295 167.906Z" fill="#5A7682"></path><path d="M215.811 167.906L203.293 167.926L203.313 180.435L215.83 180.416L215.811 167.906Z" fill="#A5B7BE"></path><path d="M178.264 180.566L165.746 180.586L165.766 193.096L178.284 193.076L178.264 180.566Z" fill="#A5B7BE"></path><path d="M190.772 180.415L178.254 180.435L178.274 192.944L190.791 192.925L190.772 180.415Z" fill="#FECB80"></path><path d="M203.295 180.415L190.777 180.435L190.797 192.944L203.315 192.925L203.295 180.415Z" fill="#7A95A1"></path><path d="M215.811 180.415L203.293 180.435L203.313 192.944L215.83 192.925L215.811 180.415Z" fill="#FA9119"></path><path d="M253.349 130.352L265.867 130.332L265.847 117.822L253.33 117.842L253.349 130.352Z" fill="#5A7682"></path><path d="M240.81 130.392L253.328 130.372L253.308 117.862L240.791 117.882L240.81 130.392Z" fill="#FA9119"></path><path d="M228.283 130.28L240.801 130.261L240.781 117.751L228.263 117.771L228.283 130.28Z" fill="#A5B7BE"></path><path d="M215.748 130.32L228.266 130.301L228.246 117.791L215.728 117.811L215.748 130.32Z" fill="#7A95A1"></path><path d="M253.232 142.878L265.75 142.858L265.73 130.349L253.213 130.368L253.232 142.878Z" fill="#FECB80"></path><path d="M240.857 142.768L253.375 142.748L253.355 130.238L240.838 130.258L240.857 142.768Z" fill="#7A95A1"></path><path d="M228.322 142.807L240.84 142.787L240.82 130.277L228.302 130.297L228.322 142.807Z" fill="#5A7682"></path><path d="M215.795 142.846L228.312 142.826L228.293 130.317L215.775 130.336L215.795 142.846Z" fill="#A5B7BE"></path><path d="M253.279 155.404L265.797 155.385L265.777 142.875L253.259 142.895L253.279 155.404Z" fill="#7A95A1"></path><path d="M240.748 155.294L253.266 155.274L253.246 142.765L240.728 142.784L240.748 155.294Z" fill="#FECB80"></path><path d="M228.205 155.333L240.723 155.313L240.703 142.804L228.185 142.824L228.205 155.333Z" fill="#7A95A1"></path><path d="M215.826 155.372L228.344 155.353L228.324 142.843L215.806 142.863L215.826 155.372Z" fill="#FA9119"></path><path d="M228.326 155.397L215.809 155.417L215.828 167.927L228.346 167.907L228.326 155.397Z" fill="#5A7682"></path><path d="M240.842 155.397L228.324 155.417L228.344 167.927L240.862 167.907L240.842 155.397Z" fill="#FA9119"></path><path d="M253.373 155.397L240.855 155.417L240.875 167.927L253.393 167.907L253.373 155.397Z" fill="#A5B7BE"></path><path d="M265.885 155.247L253.367 155.267L253.387 167.776L265.905 167.757L265.885 155.247Z" fill="#5A7682"></path><path d="M228.326 167.906L215.809 167.926L215.828 180.435L228.346 180.416L228.326 167.906Z" fill="#FECB80"></path><path d="M240.842 167.906L228.324 167.926L228.344 180.435L240.862 180.416L240.842 167.906Z" fill="#7A95A1"></path><path d="M253.373 167.906L240.855 167.926L240.875 180.435L253.393 180.416L253.373 167.906Z" fill="#5A7682"></path><path d="M265.885 167.907L253.367 167.927L253.387 180.436L265.905 180.417L265.885 167.907Z" fill="#A5B7BE"></path><path d="M228.326 180.415L215.809 180.435L215.828 192.944L228.346 192.925L228.326 180.415Z" fill="#A5B7BE"></path><path d="M240.842 180.415L228.324 180.435L228.344 192.944L240.862 192.925L240.842 180.415Z" fill="#FECB80"></path><path d="M253.373 180.415L240.855 180.435L240.875 192.944L253.393 192.925L253.373 180.415Z" fill="#7A95A1"></path><path d="M265.885 180.415L253.367 180.435L253.387 192.944L265.905 192.925L265.885 180.415Z" fill="#FA9119"></path><path d="M290.916 142.738L278.398 142.758L278.418 155.267L290.936 155.248L290.916 142.738Z" fill="#FA9119"></path><path d="M278.271 130.275L290.789 130.255L290.769 117.745L278.252 117.765L278.271 130.275Z" fill="#5A7682"></path><path d="M265.9 130.314L278.418 130.294L278.398 117.784L265.881 117.804L265.9 130.314Z" fill="#FA9119"></path><path d="M278.31 142.801L290.828 142.781L290.808 130.272L278.291 130.291L278.31 142.801Z" fill="#FECB80"></path><path d="M265.787 142.84L278.305 142.82L278.285 130.311L265.767 130.33L265.787 142.84Z" fill="#7A95A1"></path><path d="M265.818 155.365L278.336 155.346L278.316 142.836L265.799 142.856L265.818 155.365Z" fill="#FECB80"></path><path d="M278.401 155.247L265.883 155.267L265.903 167.776L278.42 167.757L278.401 155.247Z" fill="#A5B7BE"></path><path d="M290.916 155.247L278.398 155.267L278.418 167.776L290.936 167.757L290.916 155.247Z" fill="#5A7682"></path><path d="M278.401 167.756L265.883 167.775L265.903 180.285L278.42 180.265L278.401 167.756Z" fill="#5A7682"></path><path d="M290.916 167.756L278.398 167.775L278.418 180.285L290.936 180.265L290.916 167.756Z" fill="#A5B7BE"></path><path d="M128.186 193.075L115.668 193.095L115.688 205.604L128.205 205.585L128.186 193.075Z" fill="#FECB80"></path><path d="M140.705 193.075L128.188 193.095L128.207 205.604L140.725 205.585L140.705 193.075Z" fill="#7A95A1"></path><path d="M153.225 193.075L140.707 193.095L140.727 205.604L153.244 205.585L153.225 193.075Z" fill="#5A7682"></path><path d="M165.736 193.075L153.219 193.095L153.238 205.604L165.756 205.585L165.736 193.075Z" fill="#A5B7BE"></path><path d="M178.264 193.075L165.746 193.095L165.766 205.604L178.284 205.585L178.264 193.075Z" fill="#FECB80"></path><path d="M190.779 192.925L178.262 192.944L178.281 205.454L190.799 205.434L190.779 192.925Z" fill="#7A95A1"></path><path d="M203.295 192.925L190.777 192.944L190.797 205.454L203.315 205.434L203.295 192.925Z" fill="#5A7682"></path><path d="M215.811 192.925L203.293 192.944L203.313 205.454L215.83 205.434L215.811 192.925Z" fill="#A5B7BE"></path><path d="M228.326 192.925L215.809 192.944L215.828 205.454L228.346 205.434L228.326 192.925Z" fill="#FECB80"></path><path d="M240.842 192.925L228.324 192.944L228.344 205.454L240.862 205.434L240.842 192.925Z" fill="#7A95A1"></path><path d="M253.373 192.925L240.855 192.944L240.875 205.454L253.393 205.434L253.373 192.925Z" fill="#5A7682"></path><path d="M265.885 192.925L253.367 192.944L253.387 205.454L265.905 205.434L265.885 192.925Z" fill="#A5B7BE"></path><path d="M278.401 192.925L265.883 192.944L265.903 205.454L278.42 205.434L278.401 192.925Z" fill="#5A7682"></path><path d="M290.916 192.774L278.398 192.794L278.418 205.304L290.936 205.284L290.916 192.774Z" fill="#A5B7BE"></path><path d="M278.401 180.265L265.883 180.285L265.903 192.795L278.42 192.775L278.401 180.265Z" fill="#7A95A1"></path><path d="M290.916 180.265L278.398 180.285L278.418 192.795L290.936 192.775L290.916 180.265Z" fill="#FA9119"></path></g><path d="M203.145 198.36C247.624 198.36 283.681 162.328 283.681 117.881C283.681 73.4331 247.624 37.4014 203.145 37.4014C158.666 37.4014 122.609 73.4331 122.609 117.881C122.609 162.328 158.666 198.36 203.145 198.36Z" stroke="#0A0F26" stroke-width="0.512513" stroke-miterlimit="10" stroke-linecap="round" stroke-linejoin="round"></path><path d="M140.106 129.033L82.7957 155.106L74.1992 142.597L133.922 115.318" fill="#7A95A1"></path><path d="M140.106 129.033L82.7957 155.106L74.1992 142.597L133.922 115.318" stroke="#0A0F26" stroke-width="0.512513" stroke-miterlimit="10" stroke-linecap="round" stroke-linejoin="round"></path><path d="M83.4023 156.462L84.7596 159.326L54.5964 173.191L43.1344 154.051C38.6099 156.161 33.1805 154.202 31.0691 149.53C28.9577 145.009 30.9183 139.583 35.5936 137.473L52.9374 129.485C61.2323 125.718 71.0354 129.335 74.8058 137.624L76.6156 141.391" fill="#7A95A1"></path><path d="M83.4023 156.462L84.7596 159.326L54.5964 173.191L43.1344 154.051C38.6099 156.161 33.1805 154.202 31.0691 149.53C28.9577 145.009 30.9183 139.583 35.5936 137.473L52.9374 129.485C61.2323 125.718 71.0354 129.335 74.8058 137.624L76.6156 141.391" stroke="#0A0F26" stroke-width="0.512513" stroke-miterlimit="10" stroke-linecap="round" stroke-linejoin="round"></path><path d="M82.7969 155.105L89.1311 168.971C92.4491 176.205 89.2819 184.645 82.0428 187.96C74.8036 191.276 66.3579 188.111 63.04 180.877L55.8008 165.052" fill="#7A95A1"></path><path d="M82.7969 155.105L89.1311 168.971C92.4491 176.205 89.2819 184.645 82.0428 187.96C74.8036 191.276 66.3579 188.111 63.04 180.877L55.8008 165.052" stroke="#0A0F26" stroke-width="0.512513" stroke-miterlimit="10" stroke-linecap="round" stroke-linejoin="round"></path><path d="M53.3843 164.601L47.2008 167.464C42.6763 169.574 37.2469 167.615 35.1355 162.943C33.0241 158.421 34.9847 152.996 39.66 150.886L45.9943 148.022" fill="#7A95A1"></path><path d="M53.3843 164.601L47.2008 167.464C42.6763 169.574 37.2469 167.615 35.1355 162.943C33.0241 158.421 34.9847 152.996 39.66 150.886L45.9943 148.022" stroke="#0A0F26" stroke-width="0.512513" stroke-miterlimit="10" stroke-linecap="round" stroke-linejoin="round"></path><path d="M51.8763 161.134L20.0541 175.753C15.5296 177.863 13.4182 183.288 15.5296 187.809C17.6411 192.331 23.0704 194.441 27.5949 192.331L73.2922 171.382L76.1577 177.561" fill="#7A95A1"></path><path d="M51.8763 161.134L20.0541 175.753C15.5296 177.863 13.4182 183.288 15.5296 187.809C17.6411 192.331 23.0704 194.441 27.5949 192.331L73.2922 171.382L76.1577 177.561" stroke="#0A0F26" stroke-width="0.512513" stroke-miterlimit="10" stroke-linecap="round" stroke-linejoin="round"></path><path d="M194.246 97.3834L192.285 95.8763C188.515 93.0128 183.086 93.4649 179.919 97.082L178.26 98.8905V96.4791C178.109 91.6564 174.338 87.8887 169.663 87.5872L167.25 87.4365L169.06 85.9294C172.679 82.9152 173.433 77.4897 170.568 73.7219L169.211 71.7627L171.624 72.2148C176.299 73.1191 180.823 70.4063 182.181 65.7343L182.784 63.4736L183.84 65.5836C185.951 69.8034 191.079 71.612 195.453 69.8035L197.715 68.8992L196.659 71.1598C194.699 75.5304 196.358 80.6546 200.58 82.9152L202.692 84.1209L200.279 84.7238C195.603 85.9294 192.738 90.4507 193.492 95.1227L194.246 97.3834Z" fill="white" stroke="#0A0F26" stroke-width="0.512513" stroke-linecap="round" stroke-linejoin="round"></path><path d="M195.151 167.163L195.603 165.203C196.659 161.436 194.547 157.366 190.777 156.01L188.816 155.407L190.626 154.654C194.246 152.996 196.056 148.927 194.698 145.159L194.095 143.2L195.905 144.104C199.374 145.913 203.747 144.858 205.859 141.391L206.914 139.733L207.367 141.693C208.121 145.611 211.74 148.324 215.662 147.872L217.622 147.721L216.265 149.228C213.701 152.242 213.852 156.764 216.717 159.627L218.075 160.984H216.114C212.193 160.833 208.724 163.847 208.272 167.765L207.97 169.725L206.764 168.067C204.35 164.902 199.977 163.998 196.659 166.108L195.151 167.163Z" fill="white" stroke="#0A0F26" stroke-width="0.512513" stroke-linecap="round" stroke-linejoin="round"></path><path d="M236.021 128.279L236.473 126.772C237.227 123.909 235.719 120.894 232.853 119.99L231.496 119.538L232.853 118.935C235.568 117.729 236.925 114.715 236.021 111.852L235.568 110.495L236.925 111.249C239.489 112.605 242.807 111.701 244.466 109.29L245.22 108.084L245.522 109.591C246.125 112.455 248.84 114.565 251.705 114.263L253.214 114.112L252.158 115.318C250.197 117.579 250.348 120.894 252.46 123.004L253.515 124.059H252.007C248.991 123.909 246.427 126.169 246.125 129.033L245.974 130.54L245.07 129.334C243.26 126.923 239.942 126.32 237.529 127.827L236.021 128.279Z" fill="white" stroke="#0A0F26" stroke-width="0.512513" stroke-linecap="round" stroke-linejoin="round"></path><path d="M120.048 106.426L120.5 104.919C121.254 102.055 119.746 99.0408 116.881 98.1366L115.523 97.6844L116.881 97.0816C119.595 95.8759 120.953 92.8617 120.048 89.9982L119.595 88.6418L120.953 89.3954C123.517 90.7518 126.835 89.8475 128.494 87.4361L129.248 86.2305L129.549 87.7376C130.153 90.6011 132.867 92.711 135.733 92.4096L137.241 92.2589L136.185 93.4645C134.225 95.7252 134.375 99.0408 136.487 101.151L137.543 102.206H136.034C133.018 102.055 130.454 104.316 130.153 107.179L130.002 108.686L129.097 107.481C127.287 105.069 123.969 104.466 121.556 105.973L120.048 106.426Z" fill="white" stroke="#0A0F26" stroke-width="0.512513" stroke-linecap="round" stroke-linejoin="round"></path><path d="M256.833 74.6266L257.285 72.8181C258.19 69.3517 256.229 65.584 252.911 64.3783L251.102 63.7755L252.761 63.0219C256.079 61.5148 257.737 57.7471 256.531 54.2807L255.928 52.4722L257.587 53.3765C260.754 55.0343 264.826 53.9793 266.786 50.9651L267.842 49.458L268.144 51.2665C268.898 54.8836 272.216 57.2949 275.835 56.8428L277.645 56.6921L276.439 58.0485C274.026 60.7613 274.176 64.9811 276.74 67.5432L278.098 68.8996H276.288C272.668 68.7489 269.501 71.4617 269.049 75.0787L268.898 76.8872L267.842 75.3801C265.731 72.5166 261.659 71.6124 258.492 73.5716L256.833 74.6266Z" fill="white" stroke="#0A0F26" stroke-width="0.512513" stroke-linecap="round" stroke-linejoin="round"></path><path d="M140.406 301.746L160.917 246.586L195.907 259.547L191.835 270.549L224.562 282.756C236.778 287.278 242.961 300.842 238.437 313.049C233.912 325.257 220.339 331.436 208.123 326.914L140.406 301.746Z" fill="#FA9119" stroke="#0A0F26" stroke-width="0.512513" stroke-miterlimit="10" stroke-linecap="round" stroke-linejoin="round"></path><path d="M203.391 270.073L193.496 266.397L185.457 288.01L195.352 291.686L203.391 270.073Z" fill="#5A7682" stroke="#0A0F26" stroke-width="0.512513" stroke-miterlimit="10" stroke-linecap="round" stroke-linejoin="round"></path><path d="M221.626 276.867L211.73 273.191L203.691 294.804L213.586 298.48L221.626 276.867Z" fill="#5A7682" stroke="#0A0F26" stroke-width="0.512513" stroke-miterlimit="10" stroke-linecap="round" stroke-linejoin="round"></path><path d="M153.828 329.778C159.992 329.778 164.989 324.785 164.989 318.625C164.989 312.466 159.992 307.473 153.828 307.473C147.665 307.473 142.668 312.466 142.668 318.625C142.668 324.785 147.665 329.778 153.828 329.778Z" fill="white" stroke="#0A0F26" stroke-width="0.512513" stroke-miterlimit="10"></path><path d="M153.831 321.79C155.58 321.79 156.998 320.373 156.998 318.625C156.998 316.877 155.58 315.46 153.831 315.46C152.082 315.46 150.664 316.877 150.664 318.625C150.664 320.373 152.082 321.79 153.831 321.79Z" fill="#0A0F26" stroke="#0A0F26" stroke-width="0.512513" stroke-miterlimit="10"></path><path d="M194.703 344.999C200.867 344.999 205.864 340.006 205.864 333.847C205.864 327.688 200.867 322.694 194.703 322.694C188.54 322.694 183.543 327.688 183.543 333.847C183.543 340.006 188.54 344.999 194.703 344.999Z" fill="white" stroke="#0A0F26" stroke-width="0.512513" stroke-miterlimit="10"></path><path d="M194.698 337.012C196.448 337.012 197.866 335.595 197.866 333.847C197.866 332.099 196.448 330.682 194.698 330.682C192.949 330.682 191.531 332.099 191.531 333.847C191.531 335.595 192.949 337.012 194.698 337.012Z" fill="#0A0F26" stroke="#0A0F26" stroke-width="0.512513" stroke-miterlimit="10"></path><path d="M72.8384 281.1L104.359 231.516L72.8384 211.472L66.5041 221.419L37.095 202.73C26.0854 195.798 11.6071 198.963 4.66955 209.965C-2.26799 220.966 0.899149 235.435 11.9087 242.367L72.8384 281.1Z" fill="#FA9119" stroke="#0A0F26" stroke-width="0.512513" stroke-miterlimit="10" stroke-linecap="round" stroke-linejoin="round"></path><path d="M47.6486 231.254L56.5547 236.918L68.9441 217.465L60.0379 211.801L47.6486 231.254Z" fill="#5A7682" stroke="#0A0F26" stroke-width="0.512513" stroke-miterlimit="10" stroke-linecap="round" stroke-linejoin="round"></path><path d="M31.3204 220.838L40.2266 226.502L52.6159 207.049L43.7098 201.385L31.3204 220.838Z" fill="#5A7682" stroke="#0A0F26" stroke-width="0.512513" stroke-miterlimit="10" stroke-linecap="round" stroke-linejoin="round"></path><path d="M51.426 291.8C57.5897 291.8 62.5864 286.807 62.5864 280.648C62.5864 274.488 57.5897 269.495 51.426 269.495C45.2623 269.495 40.2656 274.488 40.2656 280.648C40.2656 286.807 45.2623 291.8 51.426 291.8Z" fill="white" stroke="#0A0F26" stroke-width="0.512513" stroke-miterlimit="10"></path><path d="M51.421 283.814C53.1702 283.814 54.5882 282.396 54.5882 280.648C54.5882 278.9 53.1702 277.483 51.421 277.483C49.6719 277.483 48.2539 278.9 48.2539 280.648C48.2539 282.396 49.6719 283.814 51.421 283.814Z" fill="#0A0F26" stroke="#0A0F26" stroke-width="0.512513" stroke-miterlimit="10"></path><path d="M14.4651 268.289C20.6288 268.289 25.6255 263.296 25.6255 257.137C25.6255 250.978 20.6288 245.984 14.4651 245.984C8.30136 245.984 3.30469 250.978 3.30469 257.137C3.30469 263.296 8.30136 268.289 14.4651 268.289Z" fill="white" stroke="#0A0F26" stroke-width="0.512513" stroke-miterlimit="10"></path><path d="M14.4718 260.302C16.221 260.302 17.639 258.885 17.639 257.137C17.639 255.389 16.221 253.972 14.4718 253.972C12.7227 253.972 11.3047 255.389 11.3047 257.137C11.3047 258.885 12.7227 260.302 14.4718 260.302Z" fill="#0A0F26" stroke="#0A0F26" stroke-width="0.512513" stroke-miterlimit="10"></path><path d="M71.1784 91.0537C70.4243 90.7523 69.9718 89.9988 70.1226 89.0945C74.3455 69.5022 89.7287 54.4312 108.581 50.362L135.728 10.4239C139.8 4.54616 146.586 1.68267 153.675 2.88835C160.763 4.24474 166.042 9.36888 167.701 16.3015L168.907 21.4257L191.982 4.24474C197.261 0.326277 204.198 -0.125851 209.778 3.34048C215.509 6.6561 218.526 12.8352 217.621 19.4665L215.811 33.3318C215.66 34.236 214.755 34.8389 213.85 34.8389C212.945 34.6882 212.342 33.7839 212.342 32.8797L214.152 19.0143C214.906 13.8902 212.493 8.91675 207.969 6.35468C203.444 3.6419 198.015 3.94332 193.943 7.10823L169.51 25.3442L174.487 47.1971C175.392 50.9649 174.186 54.7326 171.622 57.4454C168.907 60.1582 165.137 61.3639 161.366 60.4596L131.203 53.9791H131.052L111.295 68.5979C108.732 70.5572 105.414 70.2558 103.151 68.1458C100.889 65.8852 100.437 62.5695 102.246 60.0075L105.866 54.7326C89.8795 59.5553 77.211 72.9685 73.5914 89.9988C73.4406 90.903 72.5357 91.5059 71.6308 91.3552C71.3292 91.2045 71.3292 91.0537 71.1784 91.0537ZM110.692 53.3762L105.112 61.6653C104.056 63.1724 104.66 64.6795 105.564 65.433C106.469 66.1866 107.977 66.7894 109.335 65.7345L126.377 53.0748C122.908 52.6227 119.289 52.472 115.82 52.7734C114.01 52.9241 112.351 53.0748 110.692 53.3762ZM155.485 7.10823C154.73 6.80681 153.826 6.6561 153.071 6.50539C147.34 5.45042 141.911 7.71107 138.593 12.5338L113.256 49.6085C114.01 49.4578 114.764 49.4578 115.518 49.4578C120.495 49.1563 125.321 49.4578 130.147 50.2113L165.74 23.837L164.232 17.3565C163.176 12.3831 159.858 8.76604 155.485 7.10823ZM166.645 27.4541L134.672 51.2663L162.271 57.144C164.835 57.7468 167.55 56.8426 169.36 55.034C171.169 53.2255 171.924 50.5127 171.32 47.9507L166.645 27.4541Z" fill="white" stroke="#0A0F26" stroke-width="0.512513" stroke-linecap="round" stroke-linejoin="round"></path><path d="M108.58 50.3613L105.715 54.7322" stroke="#0A0F26" stroke-width="0.512513" stroke-linecap="round" stroke-linejoin="round"></path><path d="M113.255 49.6084L110.691 53.3764" stroke="#0A0F26" stroke-width="0.512513" stroke-linecap="round" stroke-linejoin="round"></path><path d="M130.148 50.2109L134.673 51.1152" stroke="#0A0F26" stroke-width="0.512513" stroke-linecap="round" stroke-linejoin="round"></path><path d="M126.375 53.0752L131.05 53.8288" stroke="#0A0F26" stroke-width="0.512513" stroke-linecap="round" stroke-linejoin="round"></path><path d="M168.751 21.5762L165.734 23.8369" stroke="#0A0F26" stroke-width="0.512513" stroke-linecap="round" stroke-linejoin="round"></path><path d="M169.506 25.1934L166.641 27.4541" stroke="#0A0F26" stroke-width="0.512513" stroke-linecap="round" stroke-linejoin="round"></path><path d="M221.848 44.7854L203.75 42.0726L208.124 22.7817C208.425 21.5761 209.481 20.8225 210.688 20.9732L221.094 22.4803C222.3 22.631 223.205 23.686 223.054 24.8917L221.848 44.7854Z" fill="white" stroke="#0A0F26" stroke-width="0.512513" stroke-linecap="round" stroke-linejoin="round"></path><path d="M71.4834 97.0822C74.7318 97.0822 77.3652 94.4505 77.3652 91.2042C77.3652 87.9578 74.7318 85.3262 71.4834 85.3262C68.2349 85.3262 65.6016 87.9578 65.6016 91.2042C65.6016 94.4505 68.2349 97.0822 71.4834 97.0822Z" fill="#7A95A1" stroke="#0A0F26" stroke-width="0.512513" stroke-linecap="round" stroke-linejoin="round"></path><path d="M78.5711 109.742C78.5711 109.289 78.4203 108.988 78.1187 108.687C77.8171 108.385 77.3646 108.234 77.063 108.234C76.6105 108.234 76.3089 108.385 76.0073 108.687C75.7056 108.988 75.5548 109.44 75.5548 109.742C75.7056 111.55 74.1975 113.208 72.3877 113.208C70.5779 113.359 68.9189 111.851 68.9189 110.043C68.7681 108.536 69.673 107.632 70.8795 106.426C72.086 105.22 73.4434 103.864 73.2926 101.603L72.9909 95.4241C72.9909 94.972 72.8401 94.6705 72.5385 94.3691C72.2369 94.0677 71.7844 93.917 71.4828 93.917C70.5779 93.917 69.9746 94.6705 69.9746 95.5748L70.2763 101.754C70.2763 102.507 69.673 103.261 68.6173 104.316C67.2599 105.672 65.601 107.33 65.7518 110.194C65.9026 112.906 67.5616 115.016 69.9746 115.921C70.7287 116.222 71.6336 116.373 72.5385 116.373C76.0073 116.373 78.8728 113.359 78.5711 109.742Z" fill="white" stroke="#0A0F26" stroke-width="0.512513" stroke-linecap="round" stroke-linejoin="round"></path><path d="M47.0434 58.9529C55.5393 58.9529 62.4266 52.0704 62.4266 43.5804C62.4266 35.0905 55.5393 28.208 47.0434 28.208C38.5475 28.208 31.6602 35.0905 31.6602 43.5804C31.6602 52.0704 38.5475 58.9529 47.0434 58.9529Z" fill="#7A95A1" stroke="#0A0F26" stroke-width="0.512513" stroke-miterlimit="10"></path><path d="M115.825 249.45L112.205 256.986L103.91 258.191L109.792 264.069L108.435 272.358L115.825 268.44L123.215 272.358L121.857 264.069L127.89 258.191L119.595 256.986L115.825 249.45Z" fill="#FEA82C" stroke="#0A0F26" stroke-width="0.512513" stroke-miterlimit="10" stroke-linecap="round" stroke-linejoin="round"></path><path d="M285.793 296.17L282.174 303.555L273.879 304.76L279.761 310.638L278.403 318.927L285.793 315.009L293.183 318.927L291.826 310.638L297.859 304.76L289.564 303.555L285.793 296.17Z" fill="#FEA82C" stroke="#0A0F26" stroke-width="0.512513" stroke-miterlimit="10" stroke-linecap="round" stroke-linejoin="round"></path><path d="M24.727 85.7783L21.1074 93.1631L12.8125 94.3688L18.8451 100.246L17.337 108.536L24.727 104.617L32.117 108.536L30.7596 100.246L36.7923 94.3688L28.4974 93.1631L24.727 85.7783Z" fill="#FEA82C" stroke="#0A0F26" stroke-width="0.512513" stroke-miterlimit="10" stroke-linecap="round" stroke-linejoin="round"></path><path d="M301.926 16.7539L298.156 24.2894L290.012 25.4951L295.894 31.3728L294.536 39.5111L301.926 35.7434L309.316 39.5111L307.959 31.3728L313.991 25.4951L305.697 24.2894L301.926 16.7539Z" fill="#FEA82C" stroke="#0A0F26" stroke-width="0.512513" stroke-miterlimit="10" stroke-linecap="round" stroke-linejoin="round"></path><path d="M280.202 225.788L275.527 224.13C274.169 223.678 272.812 223.527 271.605 223.829" stroke="white" stroke-width="0.512513" stroke-linecap="round" stroke-linejoin="round"></path><path d="M336.152 245.08L331.477 243.422" stroke="white" stroke-width="0.512513" stroke-linecap="round" stroke-linejoin="round"></path><path d="M280.204 225.788C278.696 228.049 277.339 230.46 276.434 233.173C275.529 235.886 274.926 238.599 274.926 241.311C274.473 253.519 281.863 264.973 293.929 269.193C305.994 273.413 318.964 268.891 326.203 258.944C327.712 256.684 329.069 254.272 329.974 251.56C330.879 248.847 331.482 246.134 331.482 243.421C331.934 231.214 324.544 219.76 312.479 215.54C300.263 211.32 287.293 215.841 280.204 225.788Z" fill="#FA9119" stroke="#0A0F26" stroke-width="0.512513" stroke-miterlimit="10" stroke-linecap="round" stroke-linejoin="round"></path><path d="M271.454 223.679C268.589 224.131 266.025 226.09 265.12 229.104C264.819 229.858 264.668 230.611 264.668 231.365C264.517 234.831 266.628 238.298 270.097 239.503L274.772 241.161L326.05 258.945L330.725 260.603C334.948 262.11 339.623 259.849 341.131 255.479C341.433 254.725 341.584 253.971 341.584 253.218C341.735 249.752 339.623 246.285 336.155 245.08" stroke="white" stroke-width="0.512513" stroke-linecap="round" stroke-linejoin="round"></path><path d="M297.392 229.405C299.89 229.405 301.916 227.381 301.916 224.884C301.916 222.387 299.89 220.362 297.392 220.362C294.893 220.362 292.867 222.387 292.867 224.884C292.867 227.381 294.893 229.405 297.392 229.405Z" fill="white"></path><path d="M326.664 179.973C336.243 179.973 344.008 172.213 344.008 162.641C344.008 153.069 336.243 145.31 326.664 145.31C317.085 145.31 309.32 153.069 309.32 162.641C309.32 172.213 317.085 179.973 326.664 179.973Z" fill="#FECB80" stroke="#0A0F26" stroke-width="0.512513" stroke-miterlimit="10" stroke-linecap="round" stroke-linejoin="round"></path><path d="M72.9961 302.65V313.05" stroke="white" stroke-width="0.512513" stroke-linecap="round" stroke-linejoin="round"></path><path d="M67.5625 307.925H78.2704" stroke="white" stroke-width="0.512513" stroke-linecap="round" stroke-linejoin="round"></path><path d="M34.2305 310.187V315.914" stroke="white" stroke-width="0.512513" stroke-linecap="round" stroke-linejoin="round"></path><path d="M31.2109 313.05H37.0928" stroke="white" stroke-width="0.512513" stroke-linecap="round" stroke-linejoin="round"></path><path d="M100.285 12.2314V22.631" stroke="white" stroke-width="0.512513" stroke-linecap="round" stroke-linejoin="round"></path><path d="M95.0078 17.5068H105.716" stroke="white" stroke-width="0.512513" stroke-linecap="round" stroke-linejoin="round"></path><path d="M312.191 117.88V128.279" stroke="white" stroke-width="0.512513" stroke-linecap="round" stroke-linejoin="round"></path><path d="M306.758 123.004H317.466" stroke="white" stroke-width="0.512513" stroke-linecap="round" stroke-linejoin="round"></path><path d="M119.434 153.899V159.627" stroke="white" stroke-width="0.512513" stroke-linecap="round" stroke-linejoin="round"></path><path d="M116.57 156.763H122.452" stroke="white" stroke-width="0.512513" stroke-linecap="round" stroke-linejoin="round"></path><path d="M111.754 180.273V186.001" stroke="white" stroke-width="0.512513" stroke-linecap="round" stroke-linejoin="round"></path><path d="M108.734 183.137H114.767" stroke="white" stroke-width="0.512513" stroke-linecap="round" stroke-linejoin="round"></path><path d="M100.746 94.2188V99.9461" stroke="white" stroke-width="0.512513" stroke-linecap="round" stroke-linejoin="round"></path><path d="M97.7266 97.082H103.608" stroke="white" stroke-width="0.512513" stroke-linecap="round" stroke-linejoin="round"></path><path d="M242.359 6.80664V12.5339" stroke="white" stroke-width="0.512513" stroke-linecap="round" stroke-linejoin="round"></path><path d="M239.34 9.66992H245.372" stroke="white" stroke-width="0.512513" stroke-linecap="round" stroke-linejoin="round"></path><path d="M269.352 25.9463V31.6736" stroke="white" stroke-width="0.512513" stroke-linecap="round" stroke-linejoin="round"></path><path d="M266.336 28.8096H272.218" stroke="white" stroke-width="0.512513" stroke-linecap="round" stroke-linejoin="round"></path><path d="M298.91 169.121V174.848" stroke="white" stroke-width="0.512513" stroke-linecap="round" stroke-linejoin="round"></path><path d="M296.047 171.984H301.929" stroke="white" stroke-width="0.512513" stroke-linecap="round" stroke-linejoin="round"></path><path d="M252.465 202.277V208.005" stroke="white" stroke-width="0.512513" stroke-linecap="round" stroke-linejoin="round"></path><path d="M249.445 205.141H255.327" stroke="white" stroke-width="0.512513" stroke-linecap="round" stroke-linejoin="round"></path><path d="M244.621 249.902V255.63" stroke="white" stroke-width="0.512513" stroke-linecap="round" stroke-linejoin="round"></path><path d="M241.758 252.766H247.64" stroke="white" stroke-width="0.512513" stroke-linecap="round" stroke-linejoin="round"></path><path d="M262.41 280.194V285.922" stroke="white" stroke-width="0.512513" stroke-linecap="round" stroke-linejoin="round"></path><path d="M259.391 283.059H265.272" stroke="white" stroke-width="0.512513" stroke-linecap="round" stroke-linejoin="round"></path><path d="M180.676 212.979V218.706" stroke="white" stroke-width="0.512513" stroke-linecap="round" stroke-linejoin="round"></path><path d="M177.656 215.842H183.538" stroke="white" stroke-width="0.512513" stroke-linecap="round" stroke-linejoin="round"></path><path d="M147.941 228.804V234.531" stroke="white" stroke-width="0.512513" stroke-linecap="round" stroke-linejoin="round"></path><path d="M145.078 231.667H150.96" stroke="white" stroke-width="0.512513" stroke-linecap="round" stroke-linejoin="round"></path><path d="M320.026 156.764C321.776 156.764 323.194 155.347 323.194 153.599C323.194 151.851 321.776 150.434 320.026 150.434C318.277 150.434 316.859 151.851 316.859 153.599C316.859 155.347 318.277 156.764 320.026 156.764Z" fill="white"></path><path d="M42.3765 39.5115C44.209 39.5115 45.6945 38.027 45.6945 36.1957C45.6945 34.3644 44.209 32.8799 42.3765 32.8799C40.5441 32.8799 39.0586 34.3644 39.0586 36.1957C39.0586 38.027 40.5441 39.5115 42.3765 39.5115Z" fill="white"></path><path d="M172.68 275.072C176.095 275.072 178.863 272.305 178.863 268.892C178.863 265.48 176.095 262.713 172.68 262.713C169.265 262.713 166.496 265.48 166.496 268.892C166.496 272.305 169.265 275.072 172.68 275.072Z" fill="#A5B7BE" stroke="#0A0F26" stroke-width="0.512513" stroke-miterlimit="10"></path><path d="M79.0233 241.312C82.4383 241.312 85.2068 238.545 85.2068 235.133C85.2068 231.72 82.4383 228.953 79.0233 228.953C75.6083 228.953 72.8398 231.72 72.8398 235.133C72.8398 238.545 75.6083 241.312 79.0233 241.312Z" fill="#A5B7BE" stroke="#0A0F26" stroke-width="0.512513" stroke-miterlimit="10"></path></svg>