<svg width="147" height="20" viewBox="0 0 147 20" fill="none" xmlns="http://www.w3.org/2000/svg">
<g clip-path="url(#clip0_1062_4996)">
<path d="M20.9181 0.894531V18.6478H15.4302V13.6074C15.4302 11.1884 15.4515 9.06783 15.558 6.83003C15.4089 7.57597 15.2384 8.35387 15.0146 9.24899L12.7661 18.6478H8.1733L5.88222 9.24899C5.67975 8.39649 5.50925 7.68253 5.36007 6.97922C5.45597 9.1744 5.48794 11.2417 5.48794 13.6074V18.6478H0V0.894531H8.67414L10.0701 7.62925C10.2193 8.33256 10.3472 9.02521 10.4964 9.74983C10.6242 9.02521 10.7414 8.33256 10.8906 7.62925L12.2333 0.894531H20.9181Z" fill="#1D4A5D"/>
<path d="M22.666 12.1155V0.894531H28.3031V11.9663C28.3031 13.3623 28.9212 14.2894 30.7967 14.2894C32.6722 14.2894 33.2902 13.3623 33.2902 11.9663V0.894531H38.9274V12.1155C38.9274 16.5272 36.0395 19.074 30.7967 19.074C25.5538 19.074 22.666 16.5272 22.666 12.1155Z" fill="#1D4A5D"/>
<path d="M39.9717 12.8186H45.5342C45.6621 14.4596 46.6851 14.8646 48.2515 14.8646C49.8713 14.8646 50.5746 14.4703 50.5746 13.6391C50.5746 12.8612 49.9778 12.4669 48.0597 12.1898L45.9178 11.8915C42.6997 11.4439 40.4086 9.6963 40.4086 6.30763C40.4086 3.5157 41.8791 0.5 47.9638 0.5C52.5993 0.5 55.4445 2.24762 55.7642 6.36091H50.5533C50.4254 5.28463 49.85 4.66657 48.1556 4.66657C46.6105 4.66657 46.0137 5.11413 46.0137 5.81744C46.0137 6.52075 46.6105 6.86175 47.6868 7.01094L49.8287 7.30931C54.2723 7.93802 56.265 9.63236 56.265 12.7973C56.265 16.6122 53.4944 19.0844 48.1663 19.0844C42.7103 19.0738 40.1422 16.5269 39.9717 12.8186Z" fill="#1D4A5D"/>
<path d="M57.1494 9.77089C57.1494 4.08048 61.0176 0.5 66.5482 0.5C72.0787 0.5 75.9469 4.09114 75.9469 9.77089C75.9469 15.4826 72.0787 19.0737 66.5482 19.0737C60.9963 19.0737 57.1494 15.4826 57.1494 9.77089ZM70.118 9.77089C70.118 6.606 68.6475 5.28463 66.5482 5.28463C64.4489 5.28463 62.989 6.606 62.989 9.77089C62.989 12.9677 64.4596 14.2891 66.5588 14.2891C68.6581 14.2891 70.118 12.9677 70.118 9.77089Z" fill="#1D4A5D"/>
<path d="M81.0933 13.4475C81.2105 14.2681 81.4343 14.8755 81.7753 15.2911C82.3933 16.0263 83.4589 16.3993 84.9721 16.3993C85.8779 16.3993 86.6132 16.3034 87.1673 16.1116C88.2329 15.7386 88.7657 15.046 88.7657 14.0336C88.7657 13.4369 88.4993 12.9787 87.9772 12.659C87.455 12.3393 86.6238 12.0622 85.4836 11.8171L83.5442 11.3909C81.6367 10.9646 80.326 10.5064 79.612 10.0162C78.3972 9.18506 77.8005 7.89566 77.8005 6.13739C77.8005 4.5283 78.3972 3.19628 79.5801 2.13066C80.7629 1.06504 82.4999 0.532227 84.791 0.532227C86.7091 0.532227 88.3395 1.03307 89.6928 2.03475C91.0462 3.03643 91.7495 4.49633 91.8241 6.40379H88.2223C88.1583 5.32752 87.6681 4.56027 86.773 4.10205C86.1763 3.80368 85.4303 3.65449 84.5352 3.65449C83.5442 3.65449 82.7556 3.8463 82.1589 4.24058C81.5728 4.63486 81.2744 5.17833 81.2744 5.87098C81.2744 6.51035 81.5621 6.98988 82.1482 7.30957C82.5212 7.52269 83.3204 7.76779 84.5352 8.0555L87.6894 8.80144C89.0748 9.12112 90.1084 9.55803 90.7904 10.1015C91.856 10.9433 92.3995 12.1688 92.3995 13.7672C92.3995 15.4083 91.7708 16.7723 90.5027 17.8485C89.2346 18.9355 87.4444 19.4789 85.132 19.4789C82.7663 19.4789 80.9121 18.9461 79.5588 17.8805C78.2054 16.8149 77.5234 15.3443 77.5234 13.4795H81.0933V13.4475Z" fill="#1D4A5D"/>
<path d="M108.842 17.4007C107.489 18.7967 105.528 19.5 102.96 19.5C100.392 19.5 98.4309 18.8073 97.0776 17.4007C95.2554 15.6851 94.3496 13.2235 94.3496 9.99467C94.3496 6.71256 95.2554 4.24033 97.0776 2.58861C98.4416 1.19265 100.402 0.5 102.96 0.5C105.528 0.5 107.489 1.20331 108.842 2.59927C110.654 4.25098 111.559 6.71256 111.559 10.0053C111.559 13.2128 110.654 15.6851 108.842 17.4007ZM106.498 14.6727C107.371 13.5752 107.808 12.0193 107.808 9.99467C107.808 7.98065 107.371 6.42485 106.498 5.32726C105.624 4.22967 104.441 3.67555 102.96 3.67555C101.479 3.67555 100.285 4.21901 99.4006 5.3166C98.5162 6.41419 98.0686 7.96999 98.0686 9.99467C98.0686 12.0193 98.5162 13.5752 99.4006 14.6727C100.285 15.7703 101.468 16.3138 102.96 16.3138C104.452 16.3138 105.624 15.7597 106.498 14.6727Z" fill="#1D4A5D"/>
<path d="M114.426 1.04395H118.241V12.0625C118.241 13.2986 118.39 14.1937 118.678 14.7585C119.125 15.7602 120.116 16.2716 121.64 16.2716C123.153 16.2716 124.134 15.7708 124.592 14.7585C124.88 14.1937 125.029 13.2879 125.029 12.0625V1.04395H128.844V12.0731C128.844 13.9806 128.545 15.4618 127.959 16.5274C126.862 18.4775 124.752 19.4472 121.651 19.4472C118.55 19.4472 116.44 18.4775 115.332 16.5274C114.735 15.4618 114.447 13.9806 114.447 12.0731V1.04395H114.426Z" fill="#1D4A5D"/>
<path d="M144.477 11.2206C143.422 12.0944 141.93 12.5313 139.98 12.5313H136.239V18.989H132.51V1.04395H140.214C141.994 1.04395 143.411 1.50216 144.466 2.42925C145.521 3.35634 146.054 4.78427 146.054 6.7237C146.054 8.84428 145.532 10.3468 144.477 11.2206ZM141.61 4.76296C141.131 4.36868 140.47 4.16621 139.617 4.16621H136.239V9.45168H139.617C140.47 9.45168 141.141 9.23856 141.61 8.80166C142.09 8.37541 142.324 7.69341 142.324 6.75567C142.324 5.81792 142.09 5.15724 141.61 4.76296Z" fill="#1D4A5D"/>
</g>
<defs>
<clipPath id="clip0_1062_4996">
<rect width="146.054" height="19" fill="white" transform="translate(0 0.5)"/>
</clipPath>
</defs>
</svg>
