<svg width="49" height="48" viewBox="0 0 49 48" fill="none" xmlns="http://www.w3.org/2000/svg" aria-label="Money Orange Duotone"><title>Money Orange Duotone</title><path d="M40.3002 37.0999C29.8002 40.0999 19.3002 32.6999 8.7002 35.6999C7.6002 35.9999 6.7002 35.4999 6.7002 34.3999C6.7002 27.4999 6.7002 20.5999 6.7002 13.5999C6.7002 12.4999 7.6002 11.1999 8.7002 10.8999C19.2002 7.89992 29.7002 15.2999 40.3002 12.2999C41.4002 11.9999 42.3002 12.4999 42.3002 13.5999C42.3002 20.4999 42.3002 27.3999 42.3002 34.3999C42.3002 35.4999 41.4002 36.6999 40.3002 37.0999Z" fill="#FECB80"></path><path d="M40.3002 37.0999C29.8002 40.0999 19.3002 32.6999 8.7002 35.6999C7.6002 35.9999 6.7002 35.4999 6.7002 34.3999C6.7002 27.4999 6.7002 20.5999 6.7002 13.5999C6.7002 12.4999 7.6002 11.1999 8.7002 10.8999C19.2002 7.89992 29.7002 15.2999 40.3002 12.2999C41.4002 11.9999 42.3002 12.4999 42.3002 13.5999C42.3002 20.4999 42.3002 27.3999 42.3002 34.3999C42.3002 35.4999 41.4002 36.6999 40.3002 37.0999Z" stroke="#0A0F26" stroke-width="1.4" stroke-miterlimit="10" stroke-linecap="round" stroke-linejoin="round"></path><path d="M24.4998 31.2C28.4763 31.2 31.6998 27.9765 31.6998 24.0001C31.6998 20.0236 28.4763 16.8 24.4998 16.8C20.5234 16.8 17.2998 20.0236 17.2998 24.0001C17.2998 27.9765 20.5234 31.2 24.4998 31.2Z" fill="#FEA82C" stroke="#0A0F26" stroke-width="1.5" stroke-miterlimit="10" stroke-linecap="round" stroke-linejoin="round"></path></svg>