<svg width="49" height="48" viewBox="0 0 49 48" fill="none" xmlns="http://www.w3.org/2000/svg" aria-label="Music Orange Duotone"><title>Music Orange Duotone</title><path d="M37.0428 5.09947L30.0428 6.19948L21.5428 7.49948C21.0428 7.59948 20.6428 7.79948 20.3428 8.19948L30.0428 16.3995L37.6428 15.1995C38.6428 14.9995 39.3428 14.1995 39.3428 13.1995V6.89948C39.3428 5.89948 38.2428 4.89947 37.0428 5.09947Z" fill="#FEA82C" stroke="#0A0F26" stroke-width="1.5" stroke-miterlimit="10" stroke-linecap="round" stroke-linejoin="round"></path><path d="M19.8423 9.49947V18.0995V22.5995C15.4423 22.5995 11.4423 25.3995 10.1423 29.5995C7.94233 36.7995 13.5423 43.3995 20.5423 42.8995C25.9423 42.4995 30.0423 37.7995 30.0423 32.3995V16.3995L20.3423 8.19946C20.0423 8.59946 19.8423 9.09947 19.8423 9.49947Z" fill="#FECB80" stroke="#0A0F26" stroke-width="1.4" stroke-miterlimit="10" stroke-linecap="round" stroke-linejoin="round"></path></svg>