<svg width="49" height="48" viewBox="0 0 49 48" fill="none" xmlns="http://www.w3.org/2000/svg" aria-label="Users Orange Duotone"><title>Users Orange Duotone</title><path d="M28.3502 17.55H26.9502C29.0502 16.65 30.5502 14.45 30.5502 12.05C30.5502 8.75005 27.8502 6.05005 24.5502 6.05005C21.2502 6.05005 18.5502 8.75005 18.5502 12.05C18.5502 14.55 20.0502 16.65 22.1502 17.55H20.7502C17.5502 17.55 14.9502 20.15 14.9502 23.35V36.55H34.1502V23.35C34.0502 20.15 31.5502 17.55 28.3502 17.55Z" fill="#FEA82C" stroke="#0A0F26" stroke-width="1.5" stroke-miterlimit="10" stroke-linecap="round" stroke-linejoin="round"></path><path d="M36.7505 32.0501H35.3506C37.5506 31.1501 39.0506 28.9501 38.9506 26.3501C38.8506 23.1501 36.1505 20.5501 33.0505 20.4501C29.6505 20.3501 26.9506 23.1501 26.9506 26.4501C26.9506 28.9501 28.4505 31.0501 30.5505 31.9501H29.1506C25.9506 31.9501 23.3506 34.5501 23.3506 37.7501V40.1501C23.3506 41.1501 24.1506 41.9501 25.1506 41.9501H40.7505C41.7505 41.9501 42.5505 41.1501 42.5505 40.1501V37.7501C42.4505 34.6501 39.8505 32.0501 36.7505 32.0501Z" fill="#FECB80" stroke="#0A0F26" stroke-width="1.4" stroke-miterlimit="10" stroke-linecap="round" stroke-linejoin="round"></path><path d="M19.9502 32.0501H18.4502C20.6502 31.1501 22.1502 28.9501 22.0502 26.3501C21.9502 23.1501 19.2502 20.5501 16.1502 20.4501C12.7502 20.3501 10.0502 23.1501 10.0502 26.4501C10.0502 28.9501 11.5502 31.0501 13.6502 31.9501H12.2502C9.05018 31.9501 6.4502 34.5501 6.4502 37.7501V40.1501C6.4502 41.1501 7.25018 41.9501 8.25018 41.9501H23.8502C24.8502 41.9501 25.6502 41.1501 25.6502 40.1501V37.7501C25.7502 34.6501 23.1502 32.0501 19.9502 32.0501Z" fill="#FECB80" stroke="#0A0F26" stroke-width="1.4" stroke-miterlimit="10" stroke-linecap="round" stroke-linejoin="round"></path></svg>